<svg width="26" height="26" viewBox="0 0 26 26" fill="none" xmlns="http://www.w3.org/2000/svg">
<path d="M19.125 0H6.375C2.85982 0 0 2.85982 0 6.375V19.125C0 22.6402 2.85982 25.5 6.375 25.5H12.75V14.875H11.2625C10.6757 14.875 10.2 14.3993 10.2 13.8125C10.2 13.2257 10.6757 12.75 11.2625 12.75H12.75V10.8641C12.75 8.38879 14.7638 6.375 17.2391 6.375H19.55C20.1368 6.375 20.6125 6.85072 20.6125 7.4375C20.6125 8.02428 20.1368 8.5 19.55 8.5H17.2391C15.9355 8.5 14.875 9.56052 14.875 10.8641V12.75H19.125C19.7118 12.75 20.1875 13.2257 20.1875 13.8125C20.1875 14.3993 19.7118 14.875 19.125 14.875H14.875V25.5H19.125C22.6402 25.5 25.5 22.6402 25.5 19.125V6.375C25.5 2.85982 22.6402 0 19.125 0Z" fill="#475883"/>
</svg>
