<svg width="929" height="788" viewBox="0 0 929 788" fill="none" xmlns="http://www.w3.org/2000/svg">
<path d="M471.822 776.017C459.664 789.581 439.31 791.931 424.398 781.523C376.772 748.354 275.005 670.466 205.079 568.272C111.037 430.827 116.276 278.745 228.32 250.209C340.365 221.672 396.32 339.981 396.32 339.981C396.32 339.981 461.813 174.805 614.833 202.469C709.681 219.658 751.664 349.582 686.17 483.737C634.783 588.953 519.313 722.973 471.822 776.017Z" fill="#FED600"/>
<path d="M761.292 3.92251C570.32 -30.7241 488.503 175.544 488.503 175.544C488.503 175.544 418.577 27.826 278.723 63.4126C187.166 86.7789 152.707 176.215 172.791 283.378C186.293 270.486 203.355 260.885 224.178 255.58C336.155 227.044 392.178 345.352 392.178 345.352C392.178 345.352 457.671 180.177 610.691 207.84C705.539 225.029 747.522 354.954 682.028 489.109C644.479 565.989 572.671 658.313 518.194 723.108C520.007 724.383 521.821 725.659 523.5 726.868C542.175 739.894 567.566 736.939 582.747 720.019C642.06 653.815 786.28 486.423 850.363 355.156C932.18 187.563 879.785 25.4088 761.292 3.92251Z" fill="#015CBF"/>
<path d="M736.751 646.227C736.751 646.294 736.751 646.295 736.751 646.362L737.02 646.16L736.819 646.026C736.751 646.093 736.751 646.16 736.751 646.227Z" fill="#015CBF"/>
<path d="M726.059 545.35L310.829 478.169C306.591 477.476 304.568 471.378 306.286 464.533L385.935 150.352C387.653 143.589 392.557 138.157 397.017 138.212L820.89 137.991C830.67 139.099 834.16 149.825 832.193 157.89L740.77 532.324C738.498 540.5 732.015 546.321 726.059 545.35Z" fill="#13171C"/>
<path d="M721.349 539.974L306.12 472.903C301.881 472.21 299.858 466.112 301.604 459.267L381.225 145.086C382.943 138.323 387.874 132.891 392.307 132.947L819.837 137.908C825.96 137.908 829.368 144.559 827.401 152.597L735.977 527.058C733.788 535.207 727.333 541.055 721.349 539.974Z" fill="#222427"/>
<path d="M704.283 545.517L705.336 548.011L305.87 484.543C299.604 483.975 293.288 484.692 287.308 486.65L27.5266 575.089L0.0440582 576.586V581.297C-0.167623 583.549 0.38765 585.807 1.61975 587.704C2.85184 589.6 4.68849 591.025 6.8316 591.746L425.663 689.637C436.966 692.408 455.805 689.637 467.496 683.844L717.581 559.374C720.027 558.558 722.15 556.985 723.644 554.883C725.138 552.781 725.925 550.258 725.892 547.679V541.609L704.283 545.517Z" fill="#A9B2BA"/>
<path d="M425.663 677.968L4.06122 579.524C-3.69594 577.722 0.0995266 572.844 12.3725 568.687L287.336 475.064C293.316 473.107 299.632 472.39 305.898 472.958L720.075 538.837C726.502 539.863 727.665 542.718 722.596 545.24L467.524 672.176C455.805 677.996 436.966 680.629 425.663 677.968Z" fill="#D7E2ED"/>
<path d="M550.608 616.912L135.545 534.264C127.816 532.74 130.42 528.5 141.086 524.814L287.197 475.064C293.177 473.107 299.493 472.39 305.759 472.958L719.936 538.837C726.363 539.863 727.527 542.718 722.457 545.24L588.702 611.756C576.737 617.008 563.538 618.795 550.608 616.912Z" fill="url(#paint0_linear_3_1509)"/>
<path d="M305.261 488.063L320.082 490.53C320.598 490.571 321.117 490.505 321.606 490.336L327.701 488.174C328.116 488.035 328.172 487.869 327.923 487.814C328.116 487.814 328.116 487.592 327.923 487.536C327.729 487.481 328.116 487.315 327.923 487.259C327.729 487.204 328.116 487.038 327.923 486.982C327.729 486.927 328.116 486.76 327.923 486.705C327.729 486.649 328.144 486.456 327.923 486.4L316.619 484.543C313.502 484.268 310.363 484.636 307.394 485.624L305.482 486.289C305.067 486.428 304.984 486.594 305.261 486.677C305.039 486.677 305.039 486.899 305.261 486.954C305.039 486.954 305.039 487.148 305.261 487.232C305.039 487.342 305.039 487.426 305.261 487.481C305.039 487.481 305.039 487.703 305.261 487.758C304.928 487.897 304.956 488.008 305.261 488.063Z" fill="#424F5C"/>
<path d="M280.66 496.71L296.146 499.343C296.679 499.408 297.219 499.351 297.726 499.177L316.315 492.553C316.731 492.414 316.814 492.248 316.564 492.165C316.758 492.165 316.758 491.943 316.564 491.888C316.37 491.832 316.758 491.694 316.564 491.611C316.37 491.527 316.758 491.417 316.564 491.333C316.37 491.25 316.758 491.139 316.564 491.084C316.37 491.029 316.758 490.807 316.564 490.751L301.133 488.202C300.61 488.137 300.079 488.194 299.582 488.368L280.937 494.909C280.521 495.075 280.438 495.214 280.687 495.297C280.494 495.297 280.494 495.518 280.687 495.574C280.881 495.629 280.494 495.796 280.687 495.851C280.881 495.906 280.494 496.073 280.687 496.128C280.881 496.184 280.494 496.35 280.687 496.405C280.881 496.461 280.355 496.655 280.66 496.71Z" fill="#424F5C"/>
<path d="M302.296 500.396L318.06 503.168C318.601 503.234 319.15 503.177 319.667 503.002L338.201 496.267C338.616 496.128 338.672 495.99 338.45 495.879C338.228 495.768 338.616 495.685 338.45 495.629C338.284 495.574 338.616 495.407 338.45 495.352C338.284 495.297 338.616 495.13 338.45 495.075C338.284 495.019 338.616 494.853 338.45 494.798C338.284 494.742 338.644 494.548 338.45 494.493L322.742 491.86C322.208 491.818 321.671 491.884 321.163 492.054L302.573 498.678C302.158 498.844 302.074 498.983 302.324 499.066C302.573 499.149 302.158 499.288 302.324 499.343C302.49 499.398 302.158 499.565 302.324 499.62C302.49 499.676 302.158 499.842 302.324 499.897C302.49 499.953 302.158 500.119 302.324 500.175C302.49 500.23 302.019 500.341 302.296 500.396Z" fill="#424F5C"/>
<path d="M570.334 548.815C570.334 548.815 570.334 548.621 570.334 548.538C570.357 548.523 570.375 548.502 570.388 548.478C570.401 548.454 570.408 548.427 570.408 548.399C570.408 548.372 570.401 548.345 570.388 548.321C570.375 548.296 570.357 548.276 570.334 548.261C570.357 548.245 570.375 548.225 570.388 548.201C570.401 548.177 570.408 548.15 570.408 548.122C570.408 548.095 570.401 548.068 570.388 548.043C570.375 548.019 570.357 547.999 570.334 547.984C570.334 547.984 570.334 547.789 570.334 547.734C570.334 547.679 570.334 547.401 570.029 547.346L550.636 544.02C550.063 543.941 549.479 544.017 548.946 544.242L530.717 552.307C530.384 552.446 530.301 552.612 530.467 552.723C530.634 552.834 530.467 552.917 530.467 553C530.467 553.083 530.467 553.194 530.467 553.277C530.445 553.292 530.426 553.313 530.413 553.337C530.4 553.361 530.393 553.388 530.393 553.416C530.393 553.443 530.4 553.47 530.413 553.494C530.426 553.519 530.445 553.539 530.467 553.554C530.445 553.569 530.426 553.59 530.413 553.614C530.4 553.638 530.393 553.665 530.393 553.693C530.393 553.72 530.4 553.747 530.413 553.771C530.426 553.796 530.445 553.816 530.467 553.831C530.273 553.97 530.467 554.136 530.744 554.192L550.137 557.628C550.729 557.707 551.33 557.631 551.883 557.407L570.001 549.092C570.445 549.092 570.5 548.926 570.334 548.815Z" fill="#424F5C"/>
<path d="M309.361 515.03L325.623 517.802C326.176 517.872 326.737 517.805 327.258 517.608L346.235 510.568C346.651 510.402 346.734 510.263 346.512 510.152C346.29 510.041 346.651 509.958 346.512 509.875C346.374 509.792 346.651 509.681 346.512 509.598C346.374 509.515 346.651 509.404 346.512 509.348C346.374 509.293 346.651 509.127 346.512 509.071C346.374 509.016 346.678 508.794 346.346 508.739L330.139 505.967C329.598 505.902 329.049 505.959 328.532 506.133L309.499 513.118C309.112 513.284 309.001 513.423 309.222 513.533C309.444 513.644 309.084 513.727 309.222 513.811C309.361 513.894 309.084 514.005 309.222 514.088C309.361 514.171 309.084 514.282 309.222 514.337C309.361 514.393 309.084 514.559 309.222 514.614C309.361 514.67 309.056 515.03 309.361 515.03Z" fill="#424F5C"/>
<path d="M287.059 511.178L303.016 513.949C303.567 514.014 304.125 513.957 304.651 513.783L323.683 506.826C324.099 506.66 324.182 506.521 323.96 506.411C323.739 506.3 324.127 506.217 323.96 506.133C323.794 506.05 324.127 505.939 323.96 505.884C323.794 505.829 324.127 505.662 323.96 505.607C323.794 505.551 324.127 505.385 323.96 505.33C323.794 505.274 324.127 505.053 323.822 504.997L307.892 502.226C307.36 502.161 306.82 502.218 306.313 502.392L287.225 509.487C286.809 509.653 286.726 509.82 286.948 509.903C287.169 509.986 286.781 510.097 286.948 510.18C287.114 510.263 286.781 510.374 286.948 510.457C287.114 510.54 286.781 510.651 286.948 510.734C287.114 510.817 286.781 510.928 286.948 510.984C287.114 511.039 286.754 511.122 287.059 511.178Z" fill="#424F5C"/>
<path d="M255.393 505.579L280.853 510.069C281.397 510.135 281.948 510.069 282.46 509.875L301.548 503.029C301.964 502.891 302.047 502.724 301.825 502.641C301.604 502.558 301.991 502.419 301.825 502.364C301.659 502.309 301.991 502.17 301.825 502.087C301.659 502.004 301.991 501.893 301.825 501.81C301.659 501.727 301.991 501.616 301.825 501.56C301.659 501.505 301.991 501.283 301.687 501.228L276.31 496.876C275.777 496.812 275.238 496.869 274.731 497.043L255.559 503.778C255.144 503.916 255.033 504.082 255.282 504.166C255.088 504.166 255.116 504.387 255.282 504.443C255.448 504.498 255.116 504.664 255.282 504.72C255.448 504.775 255.116 504.942 255.282 504.997C255.448 505.052 255.116 505.219 255.282 505.274C255.448 505.33 255.088 505.524 255.393 505.579Z" fill="#424F5C"/>
<path d="M460.126 556.797L478.993 560.234C479.582 560.32 480.183 560.253 480.738 560.04L499.66 551.725C499.993 551.725 500.076 551.42 499.91 551.309C499.743 551.198 499.91 551.088 499.91 551.032C499.91 550.977 499.91 550.838 499.91 550.755C499.91 550.672 499.91 550.561 499.91 550.478C499.91 550.395 499.91 550.284 499.91 550.201C499.91 550.118 499.91 549.896 499.632 549.84L480.849 546.515C480.269 546.443 479.681 546.51 479.131 546.709L460.154 554.801C459.794 554.94 459.683 555.134 459.877 555.245C460.071 555.356 459.739 555.439 459.877 555.522C460.016 555.605 459.739 555.716 459.877 555.772C460.016 555.827 459.739 555.993 459.877 556.049C460.016 556.104 459.739 556.27 459.877 556.326C460.016 556.381 459.766 556.742 460.126 556.797Z" fill="#424F5C"/>
<path d="M434.307 552.085L452.785 555.467C453.367 555.53 453.956 555.454 454.503 555.245L473.536 547.207C473.896 547.041 473.979 546.875 473.785 546.764C473.591 546.653 473.924 546.57 473.785 546.487C473.647 546.404 473.924 546.293 473.785 546.21C473.647 546.127 473.924 546.016 473.785 545.96C473.647 545.905 473.924 545.739 473.785 545.683C473.647 545.628 473.785 545.378 473.536 545.323L455.14 542.052C454.56 541.981 453.972 542.047 453.422 542.246L434.334 550.201C433.974 550.367 433.863 550.533 434.057 550.644C434.251 550.755 434.057 550.838 434.057 550.921C434.034 550.937 434.016 550.957 434.003 550.981C433.99 551.005 433.983 551.032 433.983 551.06C433.983 551.087 433.99 551.114 434.003 551.139C434.016 551.163 434.034 551.183 434.057 551.198C434.057 551.198 434.057 551.393 434.057 551.448C434.057 551.503 434.057 551.67 434.057 551.725C434.057 551.781 433.946 552.03 434.307 552.085Z" fill="#424F5C"/>
<path d="M408.985 547.485L427.103 550.783C427.685 550.843 428.273 550.767 428.821 550.561L447.937 542.662C448.297 542.496 448.38 542.33 448.214 542.219C448.048 542.108 448.214 542.025 448.214 541.941C448.237 541.926 448.256 541.906 448.269 541.882C448.282 541.857 448.288 541.83 448.288 541.803C448.288 541.775 448.282 541.748 448.269 541.724C448.256 541.7 448.237 541.679 448.214 541.664C448.214 541.664 448.214 541.47 448.214 541.415C448.214 541.359 448.214 541.193 448.214 541.138C448.214 541.082 448.214 540.833 447.965 540.777L429.929 537.562C429.356 537.501 428.777 537.577 428.239 537.784L409.04 545.517C408.652 545.655 408.569 545.822 408.763 545.932C408.957 546.043 408.763 546.154 408.763 546.21C408.763 546.265 408.763 546.431 408.763 546.487C408.763 546.542 408.763 546.681 408.763 546.764C408.763 546.847 408.763 546.958 408.763 547.041C408.763 547.124 408.652 547.401 408.985 547.485Z" fill="#424F5C"/>
<path d="M384.189 542.939L401.92 546.182C402.502 546.256 403.093 546.18 403.637 545.96L422.836 538.2C423.224 538.034 423.307 537.867 423.113 537.757C422.919 537.646 423.252 537.563 423.113 537.479C422.975 537.396 423.252 537.285 423.113 537.23C422.975 537.175 423.252 537.008 423.113 536.953C422.975 536.897 423.252 536.731 423.113 536.676C422.975 536.62 423.113 536.371 422.892 536.315L405.217 533.184C404.655 533.126 404.087 533.192 403.554 533.378L384.161 541.082C383.774 541.221 383.663 541.387 383.857 541.498C384.051 541.609 383.857 541.72 383.857 541.775C383.857 541.831 383.857 541.969 383.857 542.052C383.857 542.136 383.857 542.246 383.857 542.33C383.857 542.413 383.857 542.524 383.857 542.607C383.857 542.69 383.857 542.884 384.189 542.939Z" fill="#424F5C"/>
<path d="M359.865 538.505L377.264 541.692C377.837 541.752 378.416 541.676 378.954 541.47L398.346 533.821C398.707 533.655 398.817 533.488 398.624 533.405C398.43 533.322 398.624 533.183 398.624 533.128C398.624 533.073 398.624 532.934 398.624 532.851C398.624 532.768 398.624 532.657 398.624 532.574C398.624 532.491 398.624 532.38 398.624 532.297C398.624 532.213 398.624 532.019 398.402 531.964L381.004 528.888C380.433 528.817 379.854 528.884 379.314 529.082L359.921 536.648C359.505 536.814 359.422 536.98 359.616 537.064C359.81 537.147 359.478 537.285 359.616 537.341C359.755 537.396 359.478 537.562 359.616 537.618C359.755 537.673 359.478 537.84 359.616 537.895C359.755 537.95 359.478 538.089 359.616 538.172C359.755 538.255 359.533 538.449 359.865 538.505Z" fill="#424F5C"/>
<path d="M336.04 534.154L353.078 537.258C353.602 537.355 354.141 537.337 354.657 537.202L374.05 529.664C374.438 529.525 374.549 529.359 374.327 529.248C374.105 529.137 374.465 529.054 374.327 528.971C374.188 528.888 374.465 528.777 374.327 528.694C374.188 528.61 374.465 528.5 374.327 528.444C374.188 528.389 374.465 528.222 374.327 528.167C374.188 528.112 374.465 527.89 374.161 527.834L357.15 524.814C356.589 524.745 356.019 524.811 355.488 525.008L336.095 532.435C335.68 532.602 335.597 532.768 335.79 532.879C335.984 532.99 335.79 533.073 335.79 533.156C335.79 533.239 335.79 533.35 335.79 533.405C335.79 533.461 335.79 533.627 335.79 533.682C335.79 533.738 335.79 533.904 335.79 533.96C335.79 534.015 335.707 534.098 336.04 534.154Z" fill="#424F5C"/>
<path d="M312.657 529.885L329.28 532.934C329.851 533.004 330.43 532.938 330.97 532.74L350.363 525.34C350.751 525.174 350.834 525.008 350.64 524.924C350.446 524.841 350.64 524.703 350.64 524.647C350.64 524.592 350.64 524.426 350.64 524.37C350.64 524.315 350.64 524.176 350.64 524.093C350.64 524.01 350.64 523.899 350.64 523.816C350.64 523.733 350.64 523.539 350.474 523.483L333.851 520.518C333.297 520.472 332.739 520.547 332.217 520.739L312.824 528.056C312.408 528.195 312.325 528.361 312.519 528.472C312.713 528.583 312.519 528.666 312.519 528.749C312.519 528.832 312.519 528.943 312.519 529.026C312.519 529.109 312.519 529.22 312.519 529.303C312.519 529.387 312.519 529.497 312.519 529.553C312.519 529.608 312.353 529.83 312.657 529.885Z" fill="#424F5C"/>
<path d="M289.718 525.7L306.119 528.694C306.681 528.763 307.251 528.696 307.781 528.5L327.313 521.211C327.701 521.044 327.811 520.906 327.59 520.795C327.368 520.684 327.59 520.601 327.59 520.518C327.59 520.434 327.59 520.324 327.59 520.24C327.59 520.157 327.59 520.046 327.59 519.963C327.59 519.88 327.59 519.769 327.59 519.714C327.59 519.658 327.756 519.437 327.424 519.381L311.078 516.471C310.526 516.416 309.968 516.483 309.443 516.665L289.884 523.871C289.469 524.037 289.358 524.204 289.58 524.287C289.801 524.37 289.441 524.509 289.58 524.564C289.718 524.619 289.441 524.786 289.58 524.841C289.718 524.897 289.441 525.035 289.58 525.118C289.718 525.202 289.441 525.312 289.58 525.395C289.718 525.479 289.413 525.645 289.718 525.7Z" fill="#424F5C"/>
<path d="M267.251 521.598L283.319 524.536C283.881 524.605 284.451 524.539 284.981 524.342L304.54 517.164C304.956 517.164 305.067 516.859 304.845 516.748C304.624 516.637 304.984 516.554 304.845 516.471C304.707 516.388 304.984 516.277 304.845 516.194C304.707 516.111 304.984 516 304.845 515.944C304.707 515.889 304.984 515.723 304.845 515.667C304.707 515.612 305.011 515.39 304.845 515.335L288.777 512.563C288.234 512.524 287.688 512.59 287.17 512.757L267.555 519.852C267.112 520.019 267.029 520.185 267.251 520.268C267.472 520.351 267.084 520.49 267.251 520.545C267.417 520.601 267.084 520.767 267.251 520.822C267.417 520.878 267.084 521.044 267.251 521.1C267.417 521.155 267.084 521.294 267.251 521.377C267.417 521.46 266.946 521.543 267.251 521.598Z" fill="#424F5C"/>
<path d="M229.407 514.697L260.962 520.573C261.514 520.628 262.072 520.562 262.597 520.379L282.239 513.312C282.654 513.145 282.737 512.979 282.516 512.896C282.294 512.813 282.682 512.702 282.516 512.619C282.35 512.536 282.682 512.425 282.516 512.342C282.35 512.258 282.682 512.148 282.516 512.092C282.35 512.037 282.682 511.87 282.516 511.815C282.35 511.76 282.682 511.538 282.516 511.482L251.016 505.939C250.473 505.9 249.928 505.966 249.409 506.133L229.712 513.062C229.268 513.062 229.158 513.367 229.407 513.45C229.656 513.533 229.241 513.672 229.407 513.727C229.573 513.783 229.241 513.949 229.407 514.004C229.573 514.06 229.241 514.226 229.407 514.282C229.573 514.337 229.241 514.503 229.407 514.559C229.573 514.614 229.102 514.642 229.407 514.697Z" fill="#424F5C"/>
<path d="M474.283 575.339L493.842 579.052C494.454 579.122 495.073 579.036 495.643 578.803L515.036 570.128C515.368 569.989 515.452 569.823 515.313 569.712C515.174 569.601 515.313 569.491 515.313 569.435C515.336 569.42 515.355 569.399 515.368 569.375C515.381 569.351 515.387 569.324 515.387 569.297C515.387 569.269 515.381 569.242 515.368 569.218C515.355 569.194 515.336 569.173 515.313 569.158C515.336 569.143 515.355 569.122 515.368 569.098C515.381 569.074 515.387 569.047 515.387 569.019C515.387 568.992 515.381 568.965 515.368 568.941C515.355 568.917 515.336 568.896 515.313 568.881C515.336 568.866 515.355 568.845 515.368 568.821C515.381 568.797 515.387 568.77 515.387 568.742C515.387 568.715 515.381 568.688 515.368 568.664C515.355 568.639 515.336 568.619 515.313 568.604C515.479 568.437 515.313 568.271 515.008 568.216L495.615 564.64C495.015 564.563 494.405 564.639 493.842 564.862L474.449 573.426C474.089 573.565 473.978 573.759 474.145 573.87C474.311 573.98 474.145 574.064 474.145 574.147C474.145 574.23 474.145 574.341 474.145 574.424C474.145 574.507 474.145 574.618 474.145 574.701C474.126 574.719 474.112 574.741 474.102 574.764C474.092 574.788 474.086 574.814 474.086 574.84C474.086 574.865 474.092 574.891 474.102 574.915C474.112 574.939 474.126 574.96 474.145 574.978C473.785 575.117 473.923 575.283 474.283 575.339Z" fill="#424F5C"/>
<path d="M447.466 570.294L466.637 573.897C467.246 573.989 467.869 573.912 468.438 573.676L487.831 565.167C488.191 565.001 488.274 564.834 488.108 564.723C487.941 564.613 488.108 564.529 488.108 564.446C488.108 564.363 488.108 564.252 488.108 564.169C488.108 564.086 488.108 563.975 488.108 563.892C488.108 563.809 488.108 563.698 488.108 563.615C488.108 563.532 488.108 563.31 487.831 563.255L468.742 559.735C468.151 559.671 467.553 559.747 466.997 559.956L447.466 568.271C447.078 568.437 446.967 568.631 447.161 568.742C447.355 568.853 447.161 568.936 447.161 569.019C447.161 569.103 447.161 569.213 447.161 569.296C447.161 569.38 447.161 569.491 447.161 569.574C447.138 569.589 447.119 569.609 447.106 569.634C447.093 569.658 447.086 569.685 447.086 569.712C447.086 569.74 447.093 569.767 447.106 569.791C447.119 569.815 447.138 569.836 447.161 569.851C447.05 570.073 447.133 570.211 447.466 570.294Z" fill="#424F5C"/>
<path d="M421.146 565.333L439.93 568.881C440.53 568.957 441.14 568.881 441.703 568.659L461.262 560.345C461.622 560.178 461.733 560.012 461.539 559.901C461.345 559.79 461.539 559.679 461.539 559.624C461.539 559.568 461.539 559.43 461.539 559.347C461.539 559.264 461.539 559.153 461.539 559.07C461.539 558.987 461.539 558.876 461.539 558.792C461.539 558.709 461.539 558.488 461.29 558.432L442.589 554.995C441.998 554.934 441.401 555.01 440.844 555.217L421.202 563.532C420.814 563.698 420.731 563.864 420.897 564.003C420.874 564.018 420.855 564.039 420.842 564.063C420.83 564.087 420.823 564.114 420.823 564.142C420.823 564.169 420.83 564.196 420.842 564.22C420.855 564.244 420.874 564.265 420.897 564.28C420.897 564.28 420.897 564.474 420.897 564.529C420.897 564.585 420.897 564.751 420.897 564.807C420.897 564.862 420.897 565.001 420.897 565.084C420.897 565.167 420.897 565.278 421.146 565.333Z" fill="#424F5C"/>
<path d="M395.548 560.483L413.916 563.947C414.516 564.037 415.129 563.96 415.689 563.726L435.359 555.411C435.719 555.273 435.83 555.079 435.636 554.968C435.442 554.857 435.636 554.774 435.636 554.718C435.636 554.663 435.636 554.497 435.636 554.441C435.636 554.386 435.636 554.219 435.636 554.164C435.636 554.108 435.636 553.97 435.636 553.887C435.636 553.804 435.636 553.582 435.387 553.527L417.074 550.173C416.492 550.099 415.901 550.175 415.357 550.395L395.631 558.487C395.216 558.654 395.133 558.848 395.327 558.959C395.521 559.07 395.188 559.153 395.327 559.236C395.465 559.319 395.188 559.43 395.327 559.513C395.465 559.596 395.188 559.707 395.327 559.762C395.465 559.818 395.188 559.984 395.327 560.04C395.465 560.095 395.216 560.428 395.548 560.483Z" fill="#424F5C"/>
<path d="M370.365 555.744L388.373 559.125C388.964 559.2 389.565 559.124 390.118 558.903L409.871 550.838C410.259 550.672 410.37 550.506 410.176 550.395C409.982 550.284 410.176 550.173 410.176 550.118C410.176 550.062 410.176 549.924 410.176 549.84C410.176 549.757 410.176 549.646 410.176 549.563C410.176 549.48 410.176 549.369 410.176 549.286C410.176 549.203 410.176 549.009 409.954 548.954L392.002 545.655C391.422 545.585 390.834 545.651 390.284 545.849L370.476 553.831C370.06 553.998 369.977 554.192 370.171 554.303C370.365 554.414 370.033 554.497 370.171 554.58C370.31 554.663 370.033 554.774 370.171 554.829C370.31 554.885 370.033 555.051 370.171 555.106C370.31 555.162 370.033 555.328 370.171 555.384C370.31 555.439 370.033 555.661 370.365 555.744Z" fill="#424F5C"/>
<path d="M345.708 551.06L363.356 554.386C363.938 554.446 364.526 554.37 365.074 554.164L384.938 546.21C385.325 546.043 385.409 545.877 385.215 545.766C385.021 545.655 385.353 545.572 385.215 545.517C385.076 545.461 385.353 545.295 385.215 545.24C385.076 545.184 385.353 545.018 385.215 544.963C385.076 544.907 385.353 544.741 385.215 544.685C385.076 544.63 385.353 544.408 385.021 544.325L367.429 541.11C366.858 541.04 366.279 541.106 365.739 541.304L345.819 549.175C345.404 549.342 345.321 549.508 345.515 549.619C345.709 549.73 345.376 549.813 345.515 549.896C345.653 549.979 345.376 550.09 345.515 550.173C345.653 550.256 345.376 550.367 345.515 550.422C345.653 550.478 345.376 550.644 345.515 550.7C345.653 550.755 345.376 551.06 345.708 551.06Z" fill="#424F5C"/>
<path d="M321.412 546.515L338.727 549.785C339.309 549.844 339.896 549.768 340.445 549.563L360.364 541.748C360.752 541.581 360.863 541.415 360.669 541.304C360.691 541.289 360.71 541.268 360.723 541.244C360.736 541.22 360.743 541.193 360.743 541.166C360.743 541.138 360.736 541.111 360.723 541.087C360.71 541.063 360.691 541.042 360.669 541.027C360.669 541.027 360.669 540.833 360.669 540.778C360.669 540.722 360.669 540.556 360.669 540.5C360.669 540.445 360.669 540.279 360.669 540.223C360.669 540.168 360.669 539.946 360.475 539.891L343.215 536.703C342.642 536.661 342.067 536.736 341.525 536.925L321.55 544.63C321.135 544.796 321.052 544.99 321.246 545.073C321.439 545.157 321.107 545.295 321.246 545.351C321.384 545.406 321.107 545.572 321.246 545.628C321.384 545.683 321.107 545.85 321.246 545.905C321.384 545.96 321.107 546.099 321.246 546.182C321.384 546.265 321.218 546.459 321.412 546.515Z" fill="#424F5C"/>
<path d="M297.836 542.052L314.791 545.24C315.371 545.308 315.959 545.242 316.509 545.046L336.483 537.341C336.899 537.174 337.01 537.008 336.788 536.897C336.566 536.787 336.926 536.703 336.788 536.648C336.649 536.592 336.926 536.426 336.788 536.371C336.649 536.315 336.926 536.149 336.788 536.094C336.649 536.038 336.926 535.872 336.788 535.816C336.649 535.761 336.926 535.539 336.622 535.484L319.722 532.38C319.152 532.311 318.572 532.377 318.032 532.574L298.002 540.168C297.587 540.334 297.476 540.528 297.67 540.611C297.864 540.694 297.531 540.833 297.67 540.888C297.808 540.944 297.531 541.11 297.67 541.165C297.808 541.221 297.531 541.36 297.67 541.443C297.808 541.526 297.531 541.637 297.67 541.72C297.808 541.803 297.531 541.997 297.836 542.052Z" fill="#424F5C"/>
<path d="M274.62 537.674L291.242 540.805C291.815 540.861 292.393 540.786 292.932 540.584L312.99 533.017C313.406 532.851 313.489 532.685 313.295 532.602C313.101 532.518 313.433 532.38 313.295 532.324C313.156 532.269 313.433 532.103 313.295 532.047C313.156 531.992 313.433 531.853 313.295 531.77C313.156 531.687 313.433 531.576 313.295 531.493C313.156 531.41 313.433 531.216 313.129 531.16L296.506 528.139C295.944 528.071 295.374 528.137 294.844 528.333L274.731 535.817C274.315 535.955 274.204 536.149 274.426 536.232C274.647 536.315 274.26 536.454 274.426 536.509C274.592 536.565 274.26 536.731 274.426 536.787C274.592 536.842 274.26 536.981 274.426 537.064C274.592 537.147 274.26 537.258 274.426 537.341C274.592 537.424 274.315 537.618 274.62 537.674Z" fill="#424F5C"/>
<path d="M251.847 533.35L268.137 536.426C268.708 536.493 269.286 536.427 269.827 536.232L289.94 528.777C290.356 528.777 290.467 528.472 290.245 528.361C290.023 528.25 290.384 528.167 290.245 528.084C290.106 528.001 290.384 527.89 290.245 527.807C290.106 527.724 290.384 527.613 290.245 527.53C290.106 527.446 290.384 527.336 290.245 527.28C290.106 527.225 290.411 527.003 290.107 526.948L273.844 523.954C273.283 523.9 272.716 523.966 272.182 524.148L252.152 531.659C251.709 531.825 251.598 531.992 251.819 532.075C252.041 532.158 251.819 532.297 251.819 532.352C251.819 532.407 251.819 532.574 251.819 532.629C251.819 532.685 251.819 532.851 251.819 532.906C251.819 532.962 251.819 533.1 251.819 533.183C251.819 533.267 251.542 533.294 251.847 533.35Z" fill="#424F5C"/>
<path d="M202.672 524.093L245.42 532.158C245.99 532.211 246.566 532.145 247.11 531.964L267.251 524.619C267.694 524.453 267.805 524.287 267.555 524.204C267.306 524.121 267.722 523.982 267.555 523.927C267.389 523.871 267.722 523.705 267.555 523.649C267.389 523.594 267.722 523.455 267.555 523.372C267.389 523.289 267.722 523.178 267.555 523.095C267.389 523.012 267.749 522.846 267.555 522.79L224.78 515.03C224.228 514.992 223.674 515.058 223.146 515.224L202.894 522.347C202.451 522.485 202.34 522.679 202.562 522.763C202.783 522.846 202.395 522.984 202.562 523.04C202.728 523.095 202.395 523.234 202.562 523.317C202.728 523.4 202.395 523.511 202.562 523.594C202.728 523.677 202.395 523.788 202.562 523.843C202.728 523.899 202.284 524.037 202.672 524.093Z" fill="#424F5C"/>
<path d="M489.604 581.186C489.627 581.171 489.645 581.151 489.658 581.127C489.671 581.102 489.678 581.075 489.678 581.048C489.678 581.021 489.671 580.993 489.658 580.969C489.645 580.945 489.627 580.924 489.604 580.909C489.627 580.894 489.645 580.874 489.658 580.849C489.671 580.825 489.678 580.798 489.678 580.771C489.678 580.743 489.671 580.716 489.658 580.692C489.645 580.668 489.627 580.647 489.604 580.632C489.604 580.632 489.604 580.438 489.604 580.383C489.604 580.327 489.604 580.161 489.604 580.106C489.604 580.05 489.604 579.773 489.299 579.718L469.712 576.004C469.101 575.936 468.482 576.022 467.911 576.253L447.854 585.067C447.466 585.233 447.383 585.427 447.549 585.566C447.715 585.704 447.549 585.76 447.549 585.815C447.549 585.87 447.549 586.037 447.549 586.092C447.549 586.148 447.549 586.314 447.549 586.369C447.549 586.425 447.549 586.563 447.549 586.646C447.549 586.73 447.549 586.951 447.826 587.034L467.524 590.859C468.142 590.95 468.773 590.874 469.352 590.637L489.327 581.685C489.687 581.547 489.77 581.325 489.604 581.186Z" fill="#424F5C"/>
<path d="M462.343 576.004C462.343 576.004 462.343 575.81 462.343 575.727C462.365 575.711 462.384 575.691 462.397 575.667C462.41 575.642 462.417 575.615 462.417 575.588C462.417 575.561 462.41 575.534 462.397 575.509C462.384 575.485 462.365 575.465 462.343 575.449C462.365 575.434 462.384 575.414 462.397 575.389C462.41 575.365 462.417 575.338 462.417 575.311C462.417 575.283 462.41 575.256 462.397 575.232C462.384 575.208 462.365 575.187 462.343 575.172C462.343 575.172 462.343 574.978 462.343 574.923C462.343 574.867 462.343 574.618 462.066 574.535L442.894 570.904C442.285 570.814 441.663 570.89 441.094 571.126L420.953 579.801C420.565 579.967 420.454 580.161 420.62 580.272C420.786 580.383 420.62 580.466 420.62 580.549C420.62 580.632 420.62 580.743 420.62 580.826C420.62 580.909 420.62 581.02 420.62 581.103C420.62 581.186 420.62 581.297 420.62 581.353C420.62 581.408 420.62 581.658 420.897 581.741L440.152 585.51C440.772 585.576 441.4 585.491 441.98 585.261L462.066 576.475C462.426 576.309 462.537 576.004 462.343 576.004Z" fill="#424F5C"/>
<path d="M435.664 570.932C435.664 570.932 435.664 570.738 435.664 570.655C435.687 570.64 435.705 570.619 435.718 570.595C435.731 570.571 435.738 570.543 435.738 570.516C435.738 570.489 435.731 570.462 435.718 570.437C435.705 570.413 435.687 570.393 435.664 570.378C435.664 570.378 435.664 570.184 435.664 570.128C435.664 570.073 435.664 569.906 435.664 569.851C435.664 569.795 435.664 569.546 435.414 569.463L416.631 565.915C416.031 565.839 415.421 565.915 414.858 566.137L394.606 574.646C394.191 574.812 394.08 575.006 394.274 575.117C394.468 575.228 394.274 575.339 394.274 575.394C394.274 575.449 394.274 575.588 394.274 575.671C394.274 575.754 394.274 575.865 394.274 575.948C394.274 576.031 394.274 576.142 394.274 576.225C394.274 576.309 394.274 576.53 394.523 576.586L413.39 580.272C413.999 580.346 414.617 580.27 415.19 580.05L435.359 571.403C435.747 571.237 435.858 571.043 435.664 570.932Z" fill="#424F5C"/>
<path d="M409.539 565.971C409.539 565.971 409.539 565.777 409.539 565.694C409.539 565.61 409.539 565.5 409.539 565.416C409.561 565.401 409.58 565.381 409.593 565.357C409.606 565.332 409.613 565.305 409.613 565.278C409.613 565.25 409.606 565.223 409.593 565.199C409.58 565.175 409.561 565.154 409.539 565.139C409.539 565.139 409.539 564.945 409.539 564.89C409.539 564.834 409.539 564.585 409.317 564.53L293.154 542.357C292.574 542.289 291.986 542.355 291.436 542.551L270.796 550.395C270.353 550.561 270.242 550.727 270.464 550.838C270.685 550.949 270.325 551.032 270.464 551.115C270.602 551.198 270.325 551.309 270.464 551.392C270.602 551.476 270.325 551.587 270.464 551.67C270.602 551.753 270.325 551.864 270.464 551.947C270.602 552.03 270.298 552.196 270.602 552.279L387.154 575.034C387.763 575.108 388.381 575.031 388.954 574.812L409.234 566.331C409.622 566.276 409.733 566.082 409.539 565.971Z" fill="#424F5C"/>
<path d="M286.671 542.745C286.837 542.745 286.81 542.524 286.671 542.468C286.533 542.413 286.81 542.274 286.671 542.191C286.533 542.108 286.81 541.997 286.671 541.914C286.533 541.831 286.81 541.72 286.671 541.637C286.533 541.554 286.837 541.387 286.671 541.304L270.049 538.172C269.469 538.105 268.881 538.171 268.331 538.366L247.636 546.071C247.193 546.237 247.082 546.404 247.304 546.515C247.525 546.625 247.165 546.709 247.304 546.792C247.442 546.875 247.165 546.986 247.304 547.069C247.442 547.152 247.165 547.263 247.304 547.346C247.442 547.429 247.165 547.54 247.304 547.595C247.442 547.651 247.137 547.873 247.442 547.928L264.065 551.198C264.647 551.255 265.234 551.179 265.782 550.977L286.45 543.189C286.782 542.912 286.893 542.745 286.671 542.745Z" fill="#424F5C"/>
<path d="M263.565 538.228C263.704 538.228 263.704 538.034 263.565 537.95C263.427 537.867 263.704 537.756 263.565 537.701C263.427 537.646 263.704 537.479 263.565 537.424C263.427 537.368 263.704 537.202 263.565 537.147C263.427 537.091 263.704 536.87 263.427 536.814L247.109 533.71C246.537 533.667 245.961 533.743 245.419 533.932L224.669 541.498C224.226 541.664 224.115 541.858 224.336 541.941C224.558 542.025 224.336 542.163 224.336 542.219C224.336 542.274 224.336 542.44 224.336 542.496C224.336 542.551 224.336 542.69 224.336 542.773C224.336 542.856 224.336 542.967 224.336 543.05C224.336 543.133 224.17 543.3 224.336 543.355L240.682 546.542C241.262 546.61 241.849 546.543 242.4 546.348L263.122 538.671C263.676 538.505 263.787 538.339 263.565 538.228Z" fill="#424F5C"/>
<path d="M240.82 533.904C240.986 533.904 240.82 533.71 240.82 533.655C240.82 533.599 240.82 533.433 240.82 533.377C240.82 533.322 240.82 533.156 240.82 533.1C240.82 533.045 240.82 532.879 240.82 532.823C240.82 532.768 240.986 532.546 240.682 532.491L224.696 529.47C224.135 529.404 223.566 529.47 223.034 529.664L202.284 537.202C201.84 537.368 201.702 537.562 201.951 537.646C201.785 537.646 201.785 537.867 201.951 537.923C202.118 537.978 201.785 538.117 201.951 538.2C202.118 538.283 201.785 538.394 201.951 538.477C202.118 538.56 201.785 538.671 201.951 538.754C202.118 538.837 201.785 539.004 201.951 539.059L217.964 542.191C218.544 542.244 219.129 542.178 219.682 541.997L240.432 534.431C241.07 534.181 241.07 534.015 240.82 533.904Z" fill="#424F5C"/>
<path d="M218.408 529.664C218.574 529.664 218.574 529.442 218.408 529.386C218.242 529.331 218.574 529.165 218.408 529.109C218.242 529.054 218.574 528.915 218.408 528.832C218.242 528.749 218.574 528.638 218.408 528.555C218.242 528.472 218.574 528.306 218.408 528.25L198.045 524.37C197.484 524.331 196.92 524.396 196.383 524.564L180.37 530.107C178.292 530.828 177.295 531.631 177.6 532.241C177.572 532.331 177.572 532.428 177.6 532.518C177.572 532.599 177.572 532.687 177.6 532.768C177.572 532.858 177.572 532.955 177.6 533.045C177.572 533.135 177.572 533.232 177.6 533.322C177.6 533.766 177.932 534.154 178.985 534.348L195.801 537.646C196.374 537.702 196.952 537.626 197.491 537.424L218.297 529.996C218.519 529.941 218.63 529.747 218.408 529.664Z" fill="#424F5C"/>
<path d="M524.649 587.866C524.672 587.851 524.691 587.83 524.704 587.806C524.717 587.782 524.724 587.755 524.724 587.727C524.724 587.7 524.717 587.673 524.704 587.649C524.691 587.624 524.672 587.604 524.649 587.589C524.672 587.573 524.691 587.553 524.704 587.529C524.717 587.505 524.724 587.477 524.724 587.45C524.724 587.423 524.717 587.396 524.704 587.371C524.691 587.347 524.672 587.327 524.649 587.311C524.672 587.296 524.691 587.276 524.704 587.252C524.717 587.227 524.724 587.2 524.724 587.173C524.724 587.145 524.717 587.118 524.704 587.094C524.691 587.07 524.672 587.049 524.649 587.034C524.649 587.034 524.649 586.84 524.649 586.757C524.649 586.674 524.649 586.425 524.345 586.369L497.195 581.214C496.576 581.123 495.945 581.199 495.366 581.436L475.447 590.416C475.059 590.582 474.976 590.776 475.142 590.914C475.308 591.053 475.142 591.108 475.142 591.164C475.142 591.219 475.142 591.386 475.142 591.441C475.142 591.496 475.142 591.635 475.142 591.718C475.142 591.801 475.142 591.912 475.142 591.995C475.142 592.078 475.142 592.328 475.419 592.383L502.708 597.732C503.338 597.802 503.975 597.717 504.564 597.483L524.372 588.309C524.705 588.171 524.788 587.977 524.649 587.866Z" fill="#424F5C"/>
<path d="M657.491 541.526C657.491 540.833 656.688 540.251 654.942 539.974L640.37 537.59C639.817 537.514 639.255 537.581 638.735 537.784L633.028 540.556C632.723 540.694 632.668 540.833 632.834 540.944C633 541.055 632.834 541.138 632.834 541.221C632.834 541.304 632.834 541.415 632.834 541.498C632.834 541.581 632.834 541.692 632.834 541.775C632.834 541.858 632.834 541.969 632.834 542.052C632.834 542.136 632.834 542.357 633.139 542.441L652.366 545.6C652.937 545.676 653.517 545.609 654.056 545.406L655.829 544.547C657.103 543.937 657.657 543.3 657.491 542.718C657.505 542.626 657.505 542.532 657.491 542.441C657.505 542.349 657.505 542.255 657.491 542.163C657.505 542.081 657.505 541.996 657.491 541.914C657.519 541.786 657.519 541.654 657.491 541.526Z" fill="#424F5C"/>
<path d="M325.9 490.086C325.734 490.197 325.734 490.28 325.9 490.336C325.734 490.336 325.734 490.557 325.9 490.613C326.066 490.668 325.734 490.834 325.9 490.89C326.066 490.945 325.734 491.112 325.9 491.167C326.066 491.222 325.706 491.416 325.9 491.472L340.999 493.966C341.513 494.032 342.035 493.975 342.523 493.8L348.618 491.583C349.005 491.444 349.088 491.306 348.839 491.222C349.033 491.222 349.005 491.001 348.839 490.945C348.673 490.89 349.005 490.724 348.839 490.668C348.673 490.613 349.005 490.446 348.839 490.391C348.673 490.336 349.005 490.197 348.839 490.114C348.673 490.031 349.033 489.864 348.839 489.809L333.768 487.342C333.254 487.304 332.738 487.36 332.244 487.509L326.122 489.698C325.734 489.864 325.678 490.086 325.9 490.086Z" fill="#424F5C"/>
<path d="M347.038 493.606C346.835 493.717 346.835 493.8 347.038 493.855C346.844 493.855 346.844 494.077 347.038 494.133C347.232 494.188 346.844 494.354 347.038 494.41C347.232 494.465 346.844 494.632 347.038 494.687C347.232 494.742 346.817 494.936 347.038 494.992L362.386 497.542C362.911 497.585 363.44 497.519 363.938 497.348L370.005 495.13C370.393 494.992 370.448 494.826 370.227 494.742C370.005 494.659 370.393 494.548 370.227 494.465C370.06 494.382 370.393 494.271 370.227 494.188C370.06 494.105 370.393 493.994 370.227 493.939C370.06 493.883 370.393 493.717 370.227 493.662C370.06 493.606 370.421 493.384 370.088 493.329L354.74 490.834C354.226 490.768 353.704 490.825 353.216 491.001L347.149 493.218C346.844 493.357 346.789 493.523 347.038 493.606Z" fill="#424F5C"/>
<path d="M368.509 497.154C368.342 497.154 368.342 497.348 368.509 497.431C368.675 497.514 368.342 497.625 368.509 497.708C368.675 497.791 368.342 497.902 368.509 497.957C368.675 498.013 368.342 498.179 368.509 498.235C368.675 498.29 368.315 498.512 368.647 498.567L384.272 501.145C384.797 501.188 385.326 501.122 385.824 500.951L391.891 498.706C392.251 498.567 392.306 498.401 392.085 498.318C391.863 498.235 392.251 498.096 392.085 498.04C391.919 497.985 392.251 497.846 392.085 497.763C391.919 497.68 392.251 497.569 392.085 497.486C391.919 497.403 392.251 497.292 392.085 497.209C391.919 497.126 392.279 496.96 391.946 496.904L376.321 494.354C375.807 494.288 375.285 494.345 374.797 494.521L368.73 496.766C368.342 496.904 368.287 497.07 368.509 497.154Z" fill="#424F5C"/>
<path d="M390.395 500.757C390.229 500.757 390.229 500.978 390.395 501.034C390.561 501.089 390.229 501.255 390.395 501.311C390.561 501.366 390.229 501.533 390.395 501.588C390.561 501.643 390.229 501.782 390.395 501.865C390.561 501.948 390.201 502.115 390.534 502.17L406.464 504.803C406.987 504.87 407.518 504.813 408.015 504.637L414.027 502.336C414.415 502.198 414.47 502.031 414.249 501.948C414.027 501.865 414.415 501.727 414.249 501.671C414.082 501.616 414.415 501.477 414.249 501.394C414.082 501.311 414.415 501.2 414.249 501.117C414.082 501.034 414.415 500.923 414.249 500.84C414.082 500.757 414.415 500.59 414.082 500.535L398.208 497.93C397.685 497.862 397.153 497.919 396.656 498.096L390.617 500.369C390.229 500.535 390.174 500.673 390.395 500.757Z" fill="#424F5C"/>
<path d="M412.67 504.443C412.503 504.443 412.503 504.664 412.67 504.72C412.836 504.775 412.503 504.942 412.67 504.997C412.836 505.052 412.503 505.191 412.67 505.274C412.836 505.357 412.503 505.468 412.67 505.551C412.836 505.634 412.503 505.801 412.808 505.856L429.043 508.628C429.568 508.699 430.103 508.632 430.594 508.434L436.606 506.106C436.966 505.967 437.022 505.829 436.8 505.718C436.578 505.607 436.966 505.524 436.8 505.44C436.634 505.357 436.966 505.247 436.8 505.191C436.634 505.136 436.966 504.969 436.8 504.914C436.634 504.858 436.966 504.692 436.8 504.637C436.634 504.581 436.966 504.36 436.634 504.304L420.454 501.533C419.929 501.489 419.401 501.555 418.903 501.727L412.836 503.944C412.503 504.193 412.448 504.36 412.67 504.443Z" fill="#424F5C"/>
<path d="M435.331 508.184C435.165 508.184 435.193 508.406 435.331 508.461C435.47 508.517 435.193 508.683 435.331 508.739C435.47 508.794 435.193 508.96 435.331 509.016C435.47 509.071 435.193 509.21 435.331 509.293C435.47 509.376 435.165 509.57 435.525 509.625L452.009 512.397C452.553 512.471 453.106 512.404 453.616 512.203L459.572 509.847C459.933 509.709 459.988 509.542 459.794 509.459C459.6 509.376 459.933 509.265 459.794 509.182C459.656 509.099 459.933 508.988 459.794 508.905C459.656 508.822 459.933 508.711 459.794 508.656C459.656 508.6 459.933 508.434 459.794 508.378C459.656 508.323 459.933 508.101 459.6 508.046L443.116 505.274C442.582 505.229 442.044 505.295 441.537 505.468L435.553 507.796C435.193 507.963 435.137 508.101 435.331 508.184Z" fill="#424F5C"/>
<path d="M458.436 512.009C458.27 512.009 458.27 512.231 458.436 512.286C458.602 512.342 458.27 512.508 458.436 512.563C458.602 512.619 458.27 512.757 458.436 512.841C458.602 512.924 458.27 513.035 458.436 513.118C458.602 513.201 458.27 513.395 458.63 513.45L475.447 516.222C475.981 516.294 476.525 516.227 477.026 516.028L482.982 513.617C483.315 513.478 483.37 513.339 483.176 513.229C482.982 513.118 483.315 513.035 483.176 512.979C483.038 512.924 483.315 512.757 483.176 512.702C483.038 512.647 483.315 512.48 483.176 512.425C483.038 512.369 483.315 512.203 483.176 512.148C483.038 512.092 483.315 511.87 482.982 511.815L466.193 509.044C465.661 508.975 465.12 509.032 464.614 509.21L458.658 511.593C458.298 511.76 458.215 511.926 458.436 512.009Z" fill="#424F5C"/>
<path d="M482.096 515.917C481.957 515.917 481.957 516.111 482.096 516.166C482.234 516.222 481.957 516.388 482.096 516.443C482.234 516.499 481.957 516.665 482.096 516.72C482.234 516.776 481.957 516.942 482.096 516.998C482.234 517.053 481.957 517.275 482.29 517.33L499.439 520.102C499.982 520.147 500.529 520.081 501.045 519.908L506.946 517.441C507.279 517.441 507.334 517.164 507.14 517.053C506.946 516.942 507.279 516.859 507.14 516.776C507.002 516.693 507.279 516.582 507.14 516.527C507.002 516.471 507.279 516.305 507.14 516.249C507.002 516.194 507.279 516.028 507.14 515.972C507.002 515.917 507.279 515.695 506.919 515.64L489.825 512.868C489.291 512.821 488.753 512.887 488.246 513.062L482.317 515.473C481.819 515.667 481.763 515.806 482.096 515.917Z" fill="#424F5C"/>
<path d="M505.922 519.88C505.783 519.88 505.783 520.074 505.922 520.13C506.06 520.185 505.783 520.351 505.922 520.407C506.06 520.462 505.783 520.629 505.922 520.684C506.06 520.739 505.783 520.906 505.922 520.961C506.06 521.017 505.783 521.238 506.143 521.294L523.597 524.204C524.149 524.251 524.705 524.185 525.231 524.01L531.077 521.515C531.409 521.515 531.493 521.211 531.299 521.127C531.105 521.044 531.437 520.933 531.299 520.85C531.16 520.767 531.437 520.656 531.299 520.573C531.16 520.49 531.437 520.379 531.299 520.296C531.16 520.213 531.437 520.102 531.299 520.019C531.16 519.936 531.299 519.742 531.049 519.686L513.623 516.915C513.08 516.841 512.527 516.908 512.016 517.109L506.143 519.548C505.783 519.603 505.728 519.769 505.922 519.88Z" fill="#424F5C"/>
<path d="M530.329 523.899C530.329 523.899 530.191 524.121 530.329 524.176C530.468 524.231 530.191 524.37 530.329 524.453C530.468 524.536 530.191 524.647 530.329 524.73C530.468 524.814 530.191 524.924 530.329 525.008C530.468 525.091 530.329 525.285 530.578 525.34L548.364 528.306C548.919 528.357 549.478 528.281 549.999 528.084L555.845 525.562C556.149 525.423 556.232 525.285 556.038 525.174C555.845 525.063 556.177 524.98 556.038 524.897C555.9 524.814 556.177 524.703 556.038 524.62C555.9 524.536 556.177 524.426 556.038 524.37C555.9 524.315 556.177 524.148 556.038 524.093C555.9 524.037 556.039 523.788 555.789 523.733L538.031 520.823C537.487 520.76 536.937 520.827 536.424 521.017L530.551 523.511C530.218 523.65 530.163 523.816 530.329 523.899Z" fill="#424F5C"/>
<path d="M555.235 528.028C555.235 528.028 555.235 528.222 555.235 528.306C555.235 528.389 555.235 528.5 555.235 528.583C555.235 528.666 555.235 528.777 555.235 528.832C555.235 528.888 555.235 529.054 555.235 529.109C555.235 529.165 555.235 529.414 555.484 529.47L573.631 532.463C574.183 532.538 574.746 532.471 575.265 532.269L581.055 529.719C581.36 529.58 581.443 529.414 581.249 529.303C581.055 529.192 581.249 529.109 581.249 529.054C581.249 528.998 581.249 528.832 581.249 528.777C581.249 528.721 581.249 528.555 581.249 528.5C581.249 528.444 581.249 528.306 581.249 528.222C581.249 528.139 581.249 527.918 580.972 527.862L562.881 524.897C562.329 524.822 561.767 524.889 561.247 525.091L555.429 527.613C555.097 527.751 555.041 527.918 555.235 528.028Z" fill="#424F5C"/>
<path d="M580.584 532.214C580.584 532.214 580.584 532.408 580.584 532.491C580.584 532.574 580.584 532.685 580.584 532.768C580.562 532.783 580.543 532.804 580.53 532.828C580.517 532.852 580.51 532.879 580.51 532.907C580.51 532.934 580.517 532.961 580.53 532.985C580.543 533.009 580.562 533.03 580.584 533.045C580.584 533.045 580.584 533.239 580.584 533.294C580.584 533.35 580.584 533.599 580.889 533.683L599.368 536.731C599.923 536.798 600.485 536.722 601.002 536.509L606.765 533.932C607.07 533.793 607.125 533.627 606.959 533.544C606.793 533.461 606.959 533.322 606.959 533.267C606.959 533.211 606.959 533.045 606.959 532.99C606.959 532.934 606.959 532.796 606.959 532.712C606.959 532.629 606.959 532.518 606.959 532.435C606.959 532.352 606.959 532.13 606.654 532.075L588.203 529.054C587.66 528.978 587.106 529.045 586.596 529.248L580.806 531.826C580.474 531.964 580.418 532.103 580.584 532.214Z" fill="#424F5C"/>
<path d="M606.46 536.482C606.46 536.482 606.46 536.676 606.46 536.759C606.46 536.842 606.46 536.953 606.46 537.036C606.46 537.119 606.46 537.23 606.46 537.313C606.437 537.328 606.418 537.349 606.405 537.373C606.392 537.397 606.385 537.424 606.385 537.452C606.385 537.479 606.392 537.506 606.405 537.53C606.418 537.554 606.437 537.575 606.46 537.59C606.294 537.729 606.46 537.895 606.764 537.951L625.603 541.082C626.167 541.152 626.739 541.075 627.266 540.861L632.973 538.228C633.277 538.089 633.333 537.923 633.167 537.84C633 537.757 633.167 537.618 633.167 537.563C633.167 537.507 633.167 537.369 633.167 537.285C633.167 537.202 633.167 537.091 633.167 537.008C633.167 536.925 633.167 536.814 633.167 536.731C633.167 536.648 633.166 536.426 632.862 536.343L614.051 533.267C613.487 533.2 612.915 533.276 612.388 533.488L606.654 536.094C606.349 536.232 606.294 536.371 606.46 536.482Z" fill="#424F5C"/>
<path d="M360.586 498.096L344.573 495.324C344.039 495.282 343.502 495.348 342.994 495.518L324.46 502.253C324.072 502.392 323.989 502.558 324.21 502.641C324.432 502.724 324.044 502.863 324.21 502.918C324.376 502.974 324.044 503.14 324.21 503.195C324.376 503.251 324.044 503.389 324.21 503.473C324.376 503.556 324.044 503.667 324.21 503.75C324.376 503.833 324.016 503.999 324.349 504.055L340.389 506.826C340.933 506.896 341.485 506.829 341.996 506.632L360.475 499.814C360.89 499.676 360.946 499.509 360.724 499.426C360.503 499.343 360.89 499.232 360.724 499.149C360.558 499.066 360.89 498.955 360.724 498.9C360.558 498.844 360.89 498.678 360.724 498.622C360.558 498.567 360.89 498.401 360.724 498.345C360.558 498.29 360.891 498.151 360.586 498.096Z" fill="#424F5C"/>
<path d="M383.275 501.865L366.957 499.094C366.425 499.026 365.885 499.083 365.378 499.26L346.9 506.106C346.512 506.244 346.429 506.411 346.65 506.494C346.872 506.577 346.484 506.715 346.65 506.771C346.816 506.826 346.484 506.993 346.65 507.048C346.816 507.103 346.484 507.27 346.65 507.325C346.816 507.381 346.484 507.547 346.65 507.602C346.816 507.658 346.484 507.879 346.789 507.907L363.162 510.679C363.705 510.749 364.258 510.682 364.769 510.485L383.192 503.584C383.58 503.417 383.635 503.279 383.414 503.196C383.192 503.112 383.58 502.974 383.414 502.918C383.247 502.863 383.58 502.697 383.414 502.641C383.247 502.586 383.58 502.42 383.414 502.364C383.247 502.309 383.58 502.17 383.414 502.087C383.247 502.004 383.58 501.921 383.275 501.865Z" fill="#424F5C"/>
<path d="M406.38 505.718L389.758 502.946C389.215 502.904 388.669 502.97 388.151 503.14L369.756 510.097C369.368 510.097 369.284 510.401 369.506 510.484C369.728 510.568 369.34 510.706 369.506 510.762C369.672 510.817 369.34 510.983 369.506 511.039C369.672 511.094 369.34 511.233 369.506 511.316C369.672 511.399 369.34 511.51 369.506 511.593C369.672 511.676 369.34 511.843 369.672 511.898L386.295 514.67C386.838 514.739 387.391 514.673 387.902 514.475L406.242 507.464C406.63 507.297 406.713 507.159 406.491 507.076C406.27 506.992 406.491 506.854 406.491 506.798C406.491 506.743 406.491 506.577 406.491 506.521C406.491 506.466 406.491 506.299 406.491 506.244C406.491 506.189 406.491 506.022 406.491 505.967C406.491 505.912 406.713 505.773 406.38 505.718Z" fill="#424F5C"/>
<path d="M429.929 509.653L412.974 506.882C412.431 506.812 411.878 506.878 411.367 507.076L393.055 514.115C392.667 514.282 392.584 514.42 392.805 514.531C392.639 514.531 392.639 514.725 392.805 514.808C392.972 514.891 392.639 515.002 392.805 515.058C392.972 515.113 392.639 515.279 392.805 515.335C392.972 515.39 392.639 515.557 392.805 515.612C392.972 515.667 392.639 515.889 392.972 515.945L409.982 518.855C410.534 518.912 411.093 518.846 411.616 518.661L429.873 511.51C430.234 511.51 430.317 511.205 430.095 511.122C429.874 511.039 430.261 510.928 430.095 510.845C429.929 510.762 430.261 510.651 430.095 510.568C429.929 510.485 430.261 510.374 430.095 510.291C429.929 510.208 430.261 510.097 430.095 510.041C429.929 509.986 430.261 509.709 429.929 509.653Z" fill="#424F5C"/>
<path d="M453.921 513.644L436.661 510.873C436.109 510.815 435.55 510.881 435.027 511.067L416.797 518.217C416.41 518.383 416.354 518.55 416.548 518.633C416.742 518.716 416.548 518.827 416.548 518.91C416.548 518.993 416.548 519.104 416.548 519.187C416.548 519.27 416.548 519.381 416.548 519.464C416.548 519.548 416.548 519.658 416.548 519.742C416.548 519.825 416.548 520.019 416.742 520.074L434.057 523.04C434.621 523.087 435.188 523.011 435.719 522.818L453.893 515.584C454.253 515.418 454.309 515.279 454.115 515.168C453.921 515.058 454.253 514.975 454.115 514.891C453.976 514.808 454.253 514.697 454.115 514.642C453.976 514.586 454.253 514.42 454.115 514.365C453.976 514.309 454.253 514.143 454.115 514.088C453.976 514.032 454.392 513.7 453.921 513.644Z" fill="#424F5C"/>
<path d="M478.383 517.802L460.791 515.03C460.239 514.957 459.677 515.023 459.157 515.224L441.01 522.513C440.623 522.652 440.567 522.818 440.761 522.901C440.955 522.984 440.622 523.123 440.761 523.178C440.9 523.234 440.622 523.372 440.761 523.456C440.9 523.539 440.622 523.65 440.761 523.733C440.9 523.816 440.622 523.927 440.761 524.01C440.9 524.093 440.622 524.287 440.955 524.342L458.63 527.363C459.192 527.421 459.759 527.355 460.292 527.169L478.383 519.797C478.716 519.659 478.799 519.492 478.605 519.381C478.411 519.271 478.743 519.187 478.605 519.104C478.466 519.021 478.743 518.91 478.605 518.855C478.466 518.799 478.743 518.633 478.605 518.578C478.466 518.522 478.743 518.356 478.605 518.3C478.466 518.245 478.716 517.802 478.383 517.802Z" fill="#424F5C"/>
<path d="M503.317 521.848L485.365 518.855C484.811 518.807 484.252 518.883 483.731 519.076L465.667 526.449C465.335 526.615 465.252 526.781 465.446 526.864C465.64 526.948 465.307 527.086 465.446 527.142C465.584 527.197 465.307 527.336 465.446 527.419C465.584 527.502 465.307 527.613 465.446 527.696C465.584 527.779 465.307 527.89 465.446 527.973C465.584 528.056 465.307 528.25 465.667 528.306L483.675 531.382C484.246 531.455 484.826 531.389 485.365 531.188L503.345 523.705C503.678 523.566 503.761 523.4 503.567 523.289C503.373 523.178 503.705 523.095 503.567 523.012C503.428 522.929 503.705 522.818 503.567 522.763C503.428 522.707 503.705 522.541 503.567 522.485C503.428 522.43 503.705 522.264 503.567 522.208C503.428 522.153 503.678 521.903 503.317 521.848Z" fill="#424F5C"/>
<path d="M528.75 526.116L510.465 523.067C509.904 523.008 509.336 523.075 508.803 523.261L490.851 530.772C490.491 530.939 490.407 531.105 490.601 531.188C490.795 531.271 490.601 531.41 490.601 531.465C490.601 531.521 490.601 531.659 490.601 531.742C490.601 531.825 490.601 531.936 490.601 532.019C490.601 532.103 490.601 532.213 490.601 532.297C490.601 532.38 490.601 532.574 490.851 532.657L509.246 535.789C509.81 535.854 510.381 535.778 510.908 535.567L528.805 527.973C529.138 527.834 529.193 527.668 529.027 527.557C528.861 527.446 529.027 527.363 529.027 527.28C529.05 527.265 529.068 527.244 529.081 527.22C529.094 527.196 529.101 527.169 529.101 527.142C529.101 527.114 529.094 527.087 529.081 527.063C529.068 527.039 529.05 527.018 529.027 527.003C529.027 527.003 529.027 526.809 529.027 526.754C529.027 526.698 529.027 526.532 529.027 526.476C529.027 526.421 529.193 526.116 528.75 526.116Z" fill="#424F5C"/>
<path d="M554.709 530.412L536.036 527.308C535.474 527.233 534.903 527.3 534.374 527.502L516.532 535.151C516.172 535.29 516.089 535.456 516.283 535.567C516.477 535.678 516.283 535.761 516.283 535.816C516.283 535.872 516.283 536.038 516.283 536.094C516.283 536.149 516.283 536.315 516.283 536.371C516.283 536.426 516.283 536.565 516.283 536.648C516.283 536.731 516.283 536.953 516.56 537.008L535.316 540.223C535.889 540.287 536.468 540.211 537.006 540.001L554.764 532.269C555.096 532.13 555.152 531.964 554.986 531.853C554.819 531.742 554.986 531.659 554.986 531.576C555.008 531.561 555.027 531.54 555.04 531.516C555.053 531.492 555.06 531.465 555.06 531.437C555.06 531.41 555.053 531.383 555.04 531.359C555.027 531.335 555.008 531.314 554.986 531.299C554.986 531.299 554.986 531.105 554.986 531.049C554.986 530.994 554.986 530.828 554.986 530.772C554.986 530.717 555.069 530.467 554.709 530.412Z" fill="#424F5C"/>
<path d="M581.166 534.791L562.133 531.659C561.56 531.592 560.98 531.668 560.443 531.881L542.713 539.641C542.38 539.78 542.325 539.946 542.491 540.057C542.468 540.072 542.45 540.093 542.437 540.117C542.424 540.141 542.417 540.168 542.417 540.195C542.417 540.223 542.424 540.25 542.437 540.274C542.45 540.298 542.468 540.319 542.491 540.334C542.468 540.349 542.45 540.37 542.437 540.394C542.424 540.418 542.417 540.445 542.417 540.473C542.417 540.5 542.424 540.527 542.437 540.551C542.45 540.575 542.468 540.596 542.491 540.611C542.491 540.611 542.491 540.805 542.491 540.861C542.491 540.916 542.491 541.082 542.491 541.138C542.491 541.193 542.491 541.443 542.768 541.526L561.912 544.796C562.485 544.862 563.065 544.786 563.602 544.574L581.249 536.703C581.554 536.565 581.637 536.398 581.443 536.288C581.249 536.177 581.582 536.093 581.443 536.038C581.305 535.983 581.582 535.816 581.443 535.761C581.305 535.706 581.582 535.539 581.443 535.484C581.305 535.428 581.582 535.29 581.443 535.207C581.305 535.123 581.554 534.874 581.166 534.791Z" fill="#424F5C"/>
<path d="M608.177 539.309L588.784 536.066C588.221 535.984 587.645 536.061 587.122 536.288L569.502 544.159C569.17 544.325 569.114 544.464 569.281 544.575C569.447 544.685 569.281 544.796 569.281 544.852C569.281 544.907 569.281 545.046 569.281 545.129C569.281 545.212 569.281 545.323 569.281 545.406C569.281 545.489 569.281 545.6 569.281 545.683C569.281 545.766 569.281 545.988 569.585 546.043L589.117 549.397C589.699 549.462 590.288 549.386 590.835 549.175L608.316 541.166C608.648 541.027 608.704 540.888 608.538 540.778C608.371 540.667 608.538 540.584 608.538 540.5C608.538 540.417 608.538 540.306 608.538 540.223C608.538 540.14 608.538 540.029 608.538 539.946C608.56 539.931 608.579 539.91 608.592 539.886C608.605 539.862 608.612 539.835 608.612 539.808C608.612 539.78 608.605 539.753 608.592 539.729C608.579 539.705 608.56 539.684 608.538 539.669C608.648 539.53 608.565 539.364 608.177 539.309Z" fill="#424F5C"/>
<path d="M648.321 545.988L615.796 540.583C615.214 540.503 614.621 540.579 614.079 540.805L596.625 548.815C596.292 548.981 596.237 549.12 596.403 549.231C596.57 549.342 596.403 549.425 596.403 549.508C596.403 549.591 596.403 549.702 596.403 549.785C596.403 549.868 596.403 549.979 596.403 550.062C596.403 550.145 596.403 550.256 596.403 550.339C596.403 550.422 596.403 550.644 596.708 550.727L629.427 556.27C630.018 556.366 630.624 556.289 631.172 556.049L648.459 547.873C648.764 547.734 648.792 547.568 648.653 547.457C648.515 547.346 648.653 547.263 648.653 547.18C648.676 547.165 648.695 547.144 648.708 547.12C648.721 547.096 648.728 547.069 648.728 547.041C648.728 547.014 648.721 546.987 648.708 546.963C648.695 546.938 648.676 546.918 648.653 546.903C648.676 546.887 648.695 546.867 648.708 546.843C648.721 546.818 648.728 546.791 648.728 546.764C648.728 546.737 648.721 546.71 648.708 546.685C648.695 546.661 648.676 546.641 648.653 546.625C648.653 546.625 648.653 546.431 648.653 546.376C648.653 546.321 648.819 546.071 648.321 545.988Z" fill="#424F5C"/>
<path d="M625.492 556.88L605.324 553.416C604.742 553.32 604.145 553.397 603.606 553.637L585.626 561.952C585.321 562.091 585.266 562.257 585.404 562.368C585.543 562.479 585.404 562.562 585.404 562.645C585.404 562.728 585.404 562.839 585.404 562.922C585.382 562.937 585.363 562.958 585.35 562.982C585.337 563.006 585.33 563.033 585.33 563.061C585.33 563.088 585.337 563.115 585.35 563.139C585.363 563.163 585.382 563.184 585.404 563.199C585.382 563.214 585.363 563.235 585.35 563.259C585.337 563.283 585.33 563.31 585.33 563.338C585.33 563.365 585.337 563.392 585.35 563.416C585.363 563.441 585.382 563.461 585.404 563.476C585.238 563.643 585.404 563.781 585.737 563.864L605.989 567.44C606.589 567.521 607.2 567.444 607.762 567.218L625.603 558.903C625.908 558.737 625.963 558.598 625.825 558.488C625.686 558.377 625.825 558.294 625.825 558.21C625.825 558.127 625.825 558.016 625.825 557.933C625.825 557.85 625.825 557.739 625.825 557.656C625.825 557.573 625.825 557.462 625.825 557.379C625.825 557.296 625.88 556.936 625.492 556.88Z" fill="#424F5C"/>
<path d="M597.484 552.058L577.731 548.676C577.151 548.586 576.558 548.653 576.013 548.87L557.922 557.185C557.59 557.351 557.507 557.518 557.673 557.628C557.65 557.644 557.631 557.664 557.618 557.688C557.605 557.713 557.599 557.74 557.599 557.767C557.599 557.794 557.605 557.821 557.618 557.846C557.631 557.87 557.65 557.89 557.673 557.906C557.673 557.906 557.673 558.1 557.673 558.155C557.673 558.21 557.673 558.377 557.673 558.432C557.673 558.488 557.673 558.626 557.673 558.709C557.673 558.792 557.673 559.042 557.978 559.097L577.814 562.617C578.414 562.684 579.022 562.608 579.587 562.395L597.567 554.081C597.872 553.915 597.955 553.776 597.789 553.665C597.622 553.554 597.789 553.443 597.789 553.388C597.789 553.333 597.789 553.194 597.789 553.111C597.789 553.028 597.789 552.917 597.789 552.834C597.789 552.751 597.789 552.64 597.789 552.557C597.789 552.473 597.872 552.113 597.484 552.058Z" fill="#424F5C"/>
<path d="M543.045 542.745L524.096 539.503C523.525 539.429 522.945 539.496 522.406 539.697L504.259 547.623C503.899 547.762 503.816 547.928 504.01 548.039C504.204 548.15 503.871 548.233 504.01 548.316C504.149 548.399 503.871 548.51 504.01 548.593C504.149 548.676 503.871 548.787 504.01 548.87C504.149 548.954 503.871 549.064 504.01 549.12C504.149 549.175 504.01 549.425 504.259 549.508L523.32 552.861C523.902 552.939 524.494 552.863 525.037 552.64L543.294 544.602C543.627 544.464 543.71 544.297 543.516 544.186C543.322 544.076 543.655 543.993 543.516 543.909C543.378 543.826 543.655 543.715 543.516 543.632C543.378 543.549 543.655 543.438 543.516 543.355C543.378 543.272 543.655 543.161 543.516 543.106C543.378 543.05 543.544 542.745 543.045 542.745Z" fill="#424F5C"/>
<path d="M516.837 538.2L498.247 535.013C497.686 534.938 497.115 535.005 496.585 535.207L478.106 543.023C477.774 543.023 477.663 543.327 477.857 543.438C478.051 543.549 477.857 543.632 477.857 543.715C477.857 543.799 477.857 543.909 477.857 543.993C477.857 544.076 477.857 544.187 477.857 544.27C477.857 544.353 477.857 544.464 477.857 544.547C477.857 544.63 477.857 544.824 478.106 544.907L496.779 548.288C497.359 548.362 497.948 548.295 498.497 548.094L516.865 540.196C517.197 540.029 517.28 539.863 517.086 539.752C516.892 539.641 517.225 539.558 517.086 539.503C516.948 539.447 517.225 539.281 517.086 539.226C516.948 539.17 517.225 539.004 517.086 538.948C516.948 538.893 517.225 538.754 517.086 538.671C516.948 538.588 517.197 538.255 516.837 538.2Z" fill="#424F5C"/>
<path d="M491.017 533.766L472.815 530.634C472.251 530.568 471.68 530.644 471.153 530.855L452.591 538.505C452.231 538.671 452.12 538.837 452.314 538.948C452.508 539.059 452.314 539.142 452.314 539.198C452.314 539.253 452.314 539.419 452.314 539.475C452.314 539.53 452.314 539.697 452.314 539.752C452.314 539.808 452.314 539.946 452.314 540.029C452.314 540.112 452.314 540.334 452.563 540.389L470.848 543.604C471.419 543.678 471.999 543.611 472.538 543.41L491.017 535.622C491.377 535.484 491.46 535.318 491.266 535.207C491.072 535.096 491.405 535.013 491.266 534.93C491.128 534.846 491.405 534.736 491.266 534.652C491.128 534.569 491.405 534.458 491.266 534.403C491.128 534.348 491.405 534.181 491.266 534.126C491.128 534.07 491.377 533.821 491.017 533.766Z" fill="#424F5C"/>
<path d="M465.723 529.414L447.881 526.338C447.318 526.289 446.75 526.364 446.219 526.56L427.547 534.098C427.196 534.264 427.113 534.403 427.297 534.514C427.159 534.514 427.159 534.736 427.297 534.791C427.436 534.846 427.159 534.985 427.297 535.068C427.436 535.151 427.159 535.262 427.297 535.345C427.436 535.428 427.159 535.539 427.297 535.622C427.436 535.706 427.159 535.9 427.519 535.955L445.416 539.115C445.996 539.186 446.584 539.12 447.133 538.921L465.695 531.271C466.055 531.133 466.138 530.966 465.945 530.855C465.751 530.745 466.083 530.661 465.945 530.578C465.806 530.495 466.083 530.384 465.945 530.301C465.806 530.218 466.083 530.107 465.945 530.052C465.806 529.996 466.083 529.83 465.945 529.775C465.806 529.719 466.055 529.47 465.723 529.414Z" fill="#424F5C"/>
<path d="M440.9 525.146L423.418 522.153C422.857 522.082 422.286 522.148 421.756 522.347L403.028 529.775C402.64 529.913 402.557 530.079 402.751 530.19C402.945 530.301 402.613 530.384 402.751 530.467C402.89 530.551 402.613 530.661 402.751 530.745C402.89 530.828 402.613 530.939 402.751 531.022C402.89 531.105 402.613 531.216 402.751 531.299C402.89 531.382 402.613 531.576 402.945 531.631L420.509 534.736C421.082 534.799 421.662 534.723 422.199 534.514L440.872 527.003C441.232 526.864 441.315 526.698 441.121 526.587C440.927 526.476 441.26 526.393 441.121 526.31C440.983 526.227 441.26 526.116 441.121 526.033C440.983 525.95 441.26 525.839 441.121 525.784C440.983 525.728 441.26 525.562 441.121 525.506C440.983 525.451 441.26 525.201 440.9 525.146Z" fill="#424F5C"/>
<path d="M416.576 520.961L399.427 518.023C398.875 517.966 398.316 518.032 397.793 518.217L378.954 525.534C378.566 525.534 378.483 525.839 378.677 525.95C378.871 526.061 378.538 526.144 378.677 526.227C378.815 526.31 378.538 526.421 378.677 526.504C378.815 526.587 378.538 526.698 378.677 526.781C378.815 526.864 378.538 526.975 378.677 527.031C378.815 527.086 378.538 527.308 378.871 527.391L396.103 530.412C396.664 530.483 397.235 530.417 397.765 530.218L416.521 522.818C416.908 522.679 416.992 522.513 416.77 522.402C416.548 522.291 416.909 522.208 416.77 522.125C416.632 522.042 416.909 521.931 416.77 521.848C416.632 521.765 416.909 521.654 416.77 521.599C416.632 521.543 416.909 521.377 416.77 521.321C416.632 521.266 416.909 521.044 416.576 520.961Z" fill="#424F5C"/>
<path d="M392.723 516.887L375.879 513.977C375.335 513.935 374.789 514.001 374.272 514.171L355.378 521.377C354.962 521.377 354.879 521.682 355.101 521.793C355.322 521.903 354.934 521.987 355.101 522.07C355.267 522.153 354.934 522.264 355.101 522.319C355.267 522.375 354.934 522.541 355.101 522.596C355.267 522.652 354.934 522.818 355.101 522.873C355.267 522.929 354.934 523.151 355.267 523.206L372.166 526.199C372.719 526.241 373.274 526.176 373.801 526.005L392.64 518.716C393.027 518.55 393.111 518.411 392.917 518.3C392.723 518.19 393.055 518.106 392.917 518.023C392.778 517.94 393.055 517.829 392.917 517.746C392.778 517.663 393.055 517.552 392.917 517.469C392.778 517.386 393.055 517.275 392.917 517.22C392.778 517.164 393.055 516.942 392.723 516.887Z" fill="#424F5C"/>
<path d="M369.312 512.84L352.69 510.069C352.147 510.013 351.598 510.079 351.083 510.263L332.106 517.358C331.718 517.497 331.607 517.663 331.829 517.746C332.05 517.829 331.69 517.968 331.829 518.023C331.967 518.079 331.69 518.245 331.829 518.3C331.967 518.356 331.69 518.522 331.829 518.578C331.967 518.633 331.69 518.772 331.829 518.855C331.967 518.938 331.663 519.132 331.995 519.187L348.617 521.959C349.17 522.029 349.731 521.962 350.252 521.765L369.174 514.587C369.562 514.448 369.645 514.282 369.423 514.199C369.202 514.115 369.589 513.977 369.423 513.921C369.257 513.866 369.589 513.7 369.423 513.644C369.257 513.589 369.589 513.45 369.423 513.367C369.257 513.284 369.589 513.173 369.423 513.09C369.257 513.007 369.645 512.896 369.312 512.84Z" fill="#424F5C"/>
<path d="M553.462 559.513L533.903 556.021C533.312 555.956 532.714 556.032 532.158 556.243L513.402 564.557C513.042 564.696 512.987 564.89 513.125 565.001C513.264 565.112 513.125 565.195 513.125 565.278C513.125 565.361 513.125 565.472 513.125 565.555C513.102 565.566 513.082 565.584 513.068 565.606C513.054 565.628 513.047 565.654 513.047 565.68C513.047 565.706 513.054 565.731 513.068 565.753C513.082 565.775 513.102 565.793 513.125 565.805C513.125 565.805 513.125 566.026 513.125 566.082C513.125 566.137 513.125 566.414 513.43 566.47L533.1 570.073C533.702 570.143 534.313 570.057 534.873 569.823L553.545 561.37C553.85 561.204 553.933 561.037 553.767 560.927C553.79 560.911 553.809 560.891 553.822 560.867C553.835 560.842 553.841 560.816 553.841 560.788C553.841 560.761 553.835 560.734 553.822 560.709C553.809 560.685 553.79 560.665 553.767 560.649C553.767 560.649 553.767 560.455 553.767 560.4C553.767 560.345 553.767 560.178 553.767 560.123C553.767 560.067 553.767 559.929 553.767 559.846C553.767 559.763 553.85 559.569 553.462 559.513Z" fill="#424F5C"/>
<path d="M526.423 554.691L507.03 551.282C506.438 551.203 505.837 551.279 505.284 551.503L486.418 559.818C486.058 559.984 485.974 560.151 486.141 560.261C486.307 560.372 486.141 560.455 486.141 560.539C486.141 560.622 486.141 560.732 486.141 560.816C486.118 560.831 486.099 560.851 486.086 560.876C486.073 560.9 486.066 560.927 486.066 560.954C486.066 560.982 486.073 561.009 486.086 561.033C486.099 561.057 486.118 561.078 486.141 561.093C486.141 561.093 486.141 561.287 486.141 561.342C486.141 561.398 486.141 561.675 486.418 561.73L505.811 565.25C506.411 565.313 507.018 565.237 507.584 565.028L526.367 556.714C526.7 556.575 526.783 556.409 526.616 556.298C526.45 556.187 526.616 556.104 526.616 556.021C526.616 555.938 526.616 555.827 526.616 555.744C526.616 555.661 526.616 555.55 526.616 555.467C526.616 555.383 526.616 555.273 526.616 555.189C526.616 555.106 526.644 554.746 526.423 554.691Z" fill="#424F5C"/>
<path d="M601.806 568.077L561.247 560.899C560.656 560.806 560.051 560.883 559.502 561.121L540.885 569.629C540.524 569.768 540.469 569.934 540.608 570.045C540.585 570.06 540.566 570.081 540.553 570.105C540.54 570.129 540.533 570.156 540.533 570.183C540.533 570.211 540.54 570.238 540.553 570.262C540.566 570.286 540.585 570.307 540.608 570.322C540.585 570.337 540.566 570.358 540.553 570.382C540.54 570.406 540.533 570.433 540.533 570.461C540.533 570.488 540.54 570.515 540.553 570.539C540.566 570.563 540.585 570.584 540.608 570.599C540.585 570.614 540.566 570.635 540.553 570.659C540.54 570.683 540.533 570.71 540.533 570.738C540.533 570.765 540.54 570.792 540.553 570.816C540.566 570.841 540.585 570.861 540.608 570.876C540.585 570.892 540.566 570.912 540.553 570.936C540.54 570.961 540.533 570.988 540.533 571.015C540.533 571.042 540.54 571.069 540.553 571.094C540.566 571.118 540.585 571.138 540.608 571.154C540.441 571.32 540.608 571.486 540.912 571.542L581.831 578.997C582.443 579.068 583.063 578.982 583.632 578.748L602.055 570.017C602.36 570.017 602.415 569.712 602.277 569.601C602.3 569.586 602.318 569.566 602.331 569.542C602.344 569.517 602.351 569.49 602.351 569.463C602.351 569.435 602.344 569.408 602.331 569.384C602.318 569.36 602.3 569.339 602.277 569.324C602.3 569.309 602.318 569.289 602.331 569.264C602.344 569.24 602.351 569.213 602.351 569.186C602.351 569.158 602.344 569.131 602.331 569.107C602.318 569.083 602.3 569.062 602.277 569.047C602.3 569.032 602.318 569.011 602.331 568.987C602.344 568.963 602.351 568.936 602.351 568.909C602.351 568.881 602.344 568.854 602.331 568.83C602.318 568.806 602.3 568.785 602.277 568.77C602.3 568.755 602.318 568.734 602.331 568.71C602.344 568.686 602.351 568.659 602.351 568.631C602.351 568.604 602.344 568.577 602.331 568.553C602.318 568.529 602.3 568.508 602.277 568.493C602.305 568.327 602.194 568.16 601.806 568.077Z" fill="#424F5C"/>
<path d="M549.777 574.618L522.794 569.657C522.184 569.58 521.565 569.656 520.993 569.879L501.6 578.581C501.24 578.748 501.157 578.914 501.295 579.052C501.278 579.068 501.263 579.087 501.254 579.109C501.244 579.13 501.239 579.154 501.239 579.177C501.239 579.201 501.244 579.224 501.254 579.246C501.263 579.267 501.278 579.286 501.295 579.302C501.295 579.302 501.295 579.524 501.295 579.579C501.295 579.634 501.295 579.773 501.295 579.856C501.295 579.939 501.295 580.05 501.295 580.133C501.295 580.216 501.295 580.466 501.6 580.521L528.722 585.649C529.343 585.733 529.975 585.646 530.551 585.399L549.722 576.53C550.055 576.392 550.11 576.226 549.971 576.115C549.994 576.099 550.013 576.079 550.026 576.055C550.039 576.03 550.046 576.003 550.046 575.976C550.046 575.949 550.039 575.922 550.026 575.897C550.013 575.873 549.994 575.853 549.971 575.837C549.994 575.822 550.013 575.802 550.026 575.778C550.039 575.753 550.046 575.726 550.046 575.699C550.046 575.671 550.039 575.644 550.026 575.62C550.013 575.596 549.994 575.575 549.971 575.56C549.994 575.545 550.013 575.525 550.026 575.5C550.039 575.476 550.046 575.449 550.046 575.422C550.046 575.394 550.039 575.367 550.026 575.343C550.013 575.319 549.994 575.298 549.971 575.283C549.994 575.268 550.013 575.247 550.026 575.223C550.039 575.199 550.046 575.172 550.046 575.145C550.046 575.117 550.039 575.09 550.026 575.066C550.013 575.042 549.994 575.021 549.971 575.006C550.248 574.84 550.165 574.673 549.777 574.618Z" fill="#424F5C"/>
<path d="M578.284 579.828L561.662 576.78L556.897 576.004C556.287 575.926 555.668 576.003 555.096 576.225L535.98 585.122C535.62 585.288 535.565 585.455 535.703 585.593C535.842 585.732 535.703 585.787 535.703 585.87C535.68 585.882 535.66 585.899 535.646 585.922C535.632 585.944 535.625 585.969 535.625 585.995C535.625 586.021 535.632 586.047 535.646 586.069C535.66 586.091 535.68 586.108 535.703 586.12C535.68 586.135 535.661 586.156 535.649 586.18C535.636 586.204 535.629 586.231 535.629 586.258C535.629 586.286 535.636 586.313 535.649 586.337C535.661 586.361 535.68 586.382 535.703 586.397C535.68 586.412 535.661 586.433 535.649 586.457C535.636 586.481 535.629 586.508 535.629 586.536C535.629 586.563 535.636 586.59 535.649 586.614C535.661 586.638 535.68 586.659 535.703 586.674C535.537 586.84 535.703 587.007 536.008 587.09L537.892 587.45L557.479 591.136C558.106 591.23 558.747 591.153 559.335 590.915L578.34 581.879C578.672 581.713 578.728 581.547 578.589 581.436C578.612 581.421 578.631 581.4 578.644 581.376C578.657 581.352 578.663 581.325 578.663 581.297C578.663 581.27 578.657 581.243 578.644 581.219C578.631 581.195 578.612 581.174 578.589 581.159C578.612 581.144 578.631 581.123 578.644 581.099C578.657 581.075 578.663 581.048 578.663 581.02C578.663 580.993 578.657 580.966 578.644 580.942C578.631 580.917 578.612 580.897 578.589 580.882C578.589 580.882 578.589 580.688 578.589 580.604C578.589 580.521 578.589 580.41 578.589 580.327C578.589 580.244 578.672 579.912 578.284 579.828Z" fill="#424F5C"/>
<path d="M553.046 591.801L552.132 591.635H551.55L531.575 587.838C530.955 587.754 530.323 587.84 529.747 588.087L509.966 597.261C509.634 597.428 509.523 597.622 509.689 597.732C509.666 597.748 509.648 597.768 509.635 597.792C509.622 597.817 509.615 597.844 509.615 597.871C509.615 597.898 509.622 597.925 509.635 597.95C509.648 597.974 509.666 597.994 509.689 598.01C509.666 598.025 509.648 598.045 509.635 598.07C509.622 598.094 509.615 598.121 509.615 598.148C509.615 598.176 509.622 598.203 509.635 598.227C509.648 598.251 509.666 598.272 509.689 598.287C509.666 598.302 509.648 598.322 509.635 598.347C509.622 598.371 509.615 598.398 509.615 598.425C509.615 598.453 509.622 598.48 509.635 598.504C509.648 598.528 509.666 598.549 509.689 598.564C509.666 598.579 509.648 598.6 509.635 598.624C509.622 598.648 509.615 598.675 509.615 598.702C509.615 598.73 509.622 598.757 509.635 598.781C509.648 598.805 509.666 598.826 509.689 598.841C509.523 599.007 509.689 599.174 509.994 599.257L518.056 600.837L525.868 602.361L526.783 602.527C530.596 603.079 534.487 602.571 538.031 601.058L553.102 593.88C553.434 593.741 553.517 593.575 553.379 593.437C553.401 593.421 553.42 593.401 553.433 593.377C553.446 593.352 553.453 593.325 553.453 593.298C553.453 593.271 553.446 593.244 553.433 593.219C553.42 593.195 553.401 593.175 553.379 593.159C553.379 593.159 553.379 592.965 553.379 592.882C553.379 592.799 553.379 592.688 553.379 592.605C553.402 592.594 553.422 592.576 553.436 592.554C553.449 592.532 553.457 592.506 553.457 592.48C553.457 592.454 553.449 592.429 553.436 592.407C553.422 592.385 553.402 592.367 553.379 592.356C553.545 592.051 553.434 591.885 553.046 591.801Z" fill="#424F5C"/>
<path d="M305.26 486.4L320.082 488.867C320.598 488.908 321.117 488.842 321.606 488.673L327.701 486.511C328.172 486.345 328.227 486.178 327.839 486.095L316.536 484.266C313.421 483.966 310.278 484.325 307.31 485.319L305.399 485.984C304.928 486.151 304.789 486.345 305.26 486.4Z" fill="#617387"/>
<path d="M326.011 489.837L341.11 492.331C341.624 492.383 342.143 492.327 342.634 492.165L348.729 489.948C349.172 489.781 349.227 489.615 348.729 489.532L333.658 487.065C333.142 487.024 332.623 487.09 332.134 487.259L326.011 489.421C325.679 489.587 325.623 489.781 326.011 489.837Z" fill="#617387"/>
<path d="M347.149 493.329L362.497 495.879C363.022 495.922 363.551 495.856 364.049 495.685L370.116 493.467C370.559 493.301 370.614 493.107 370.116 493.052L354.768 490.53C354.254 490.491 353.737 490.548 353.244 490.696L347.177 492.913C346.789 493.079 346.734 493.273 347.149 493.329Z" fill="#617387"/>
<path d="M368.648 496.876L384.273 499.482C384.798 499.525 385.326 499.459 385.824 499.288L391.891 497.015C392.335 496.849 392.362 496.682 391.891 496.599L376.266 494.049C375.752 493.997 375.233 494.054 374.743 494.216L368.675 496.461C368.287 496.627 368.232 496.821 368.648 496.876Z" fill="#617387"/>
<path d="M390.672 500.507L406.602 503.14C407.127 503.211 407.662 503.145 408.153 502.946L414.165 500.673C414.608 500.479 414.636 500.285 414.165 500.23L398.291 497.625C397.766 497.581 397.237 497.647 396.739 497.819L390.7 500.091C390.146 500.258 390.118 500.452 390.672 500.507Z" fill="#617387"/>
<path d="M412.835 504.193L429.07 506.965C429.595 507.009 430.123 506.943 430.621 506.771L436.633 504.443C437.077 504.277 437.077 504.083 436.633 503.999L420.454 501.366C419.931 501.299 419.399 501.356 418.903 501.533L412.891 503.833C412.42 503.944 412.392 504.138 412.835 504.193Z" fill="#617387"/>
<path d="M435.525 507.963L452.009 510.734C452.553 510.808 453.106 510.741 453.616 510.54L459.572 508.184C460.016 508.018 460.016 507.796 459.572 507.741L443.088 504.969C442.554 504.924 442.017 504.99 441.509 505.163L435.525 507.519C434.999 507.685 434.999 507.879 435.525 507.963Z" fill="#617387"/>
<path d="M458.63 511.787L475.447 514.559C475.981 514.631 476.525 514.564 477.026 514.365L482.982 511.954C483.398 511.787 483.398 511.593 482.982 511.51L466.194 508.739C465.659 508.666 465.115 508.733 464.615 508.933L458.658 511.288C458.215 511.51 458.187 511.704 458.63 511.787Z" fill="#617387"/>
<path d="M482.096 515.667L499.245 518.439C499.788 518.513 500.341 518.446 500.852 518.245L506.753 515.806C507.196 515.64 507.168 515.418 506.753 515.363L489.659 512.591C489.125 512.516 488.58 512.583 488.08 512.785L482.151 515.196C481.736 515.39 481.736 515.612 482.096 515.667Z" fill="#617387"/>
<path d="M506.144 519.631L523.597 522.402C524.152 522.454 524.711 522.378 525.232 522.18L531.077 519.714C531.52 519.52 531.52 519.326 531.077 519.243L513.651 516.471C513.108 516.426 512.561 516.492 512.044 516.665L506.171 519.132C505.7 519.354 505.7 519.575 506.144 519.631Z" fill="#617387"/>
<path d="M530.578 523.677L548.364 526.615C548.917 526.69 549.479 526.623 549.999 526.421L555.844 523.899C556.26 523.733 556.232 523.511 555.844 523.428L538.086 520.656C537.543 520.608 536.995 520.674 536.479 520.85L530.606 523.345C530.107 523.345 530.135 523.594 530.578 523.677Z" fill="#617387"/>
<path d="M555.484 527.807L573.63 530.8C574.183 530.875 574.745 530.808 575.265 530.606L581.055 528.056C581.471 527.862 581.443 527.641 581.055 527.557L562.964 524.592C562.412 524.531 561.853 524.598 561.33 524.786L555.512 527.336C554.986 527.502 555.013 527.724 555.484 527.807Z" fill="#617387"/>
<path d="M580.889 531.992L599.368 535.068C599.923 535.135 600.485 535.059 601.002 534.846L606.765 532.269C607.18 532.075 607.153 531.853 606.765 531.77L588.203 528.888C587.66 528.812 587.106 528.878 586.596 529.082L580.806 531.659C580.363 531.659 580.39 531.936 580.889 531.992Z" fill="#617387"/>
<path d="M606.765 536.288L625.604 539.392C626.165 539.47 626.737 539.403 627.266 539.198L632.973 536.426C633.389 536.232 633.333 536.01 632.973 535.927L614.162 532.851C613.6 532.775 613.029 532.842 612.5 533.045L606.765 535.65C606.238 535.983 606.266 536.204 606.765 536.288Z" fill="#617387"/>
<path d="M654.942 539.669L640.37 537.285C639.815 537.218 639.252 537.295 638.735 537.507L633.028 540.14C632.613 540.334 632.668 540.584 633.028 540.667L652.255 543.826C652.825 543.902 653.406 543.835 653.945 543.632L655.718 542.773C658.377 541.554 657.99 540.168 654.942 539.669Z" fill="#617387"/>
<path d="M280.659 495.047L296.146 497.68C296.68 497.749 297.223 497.682 297.725 497.486L316.314 490.89C316.785 490.724 316.841 490.53 316.314 490.474L300.883 487.897C300.36 487.86 299.835 487.916 299.332 488.063L280.687 494.604C280.354 494.77 280.271 494.964 280.659 495.047Z" fill="#617387"/>
<path d="M338.312 494.105L322.603 491.472C322.069 491.43 321.532 491.496 321.024 491.666L302.435 498.318C301.964 498.484 301.908 498.678 302.435 498.733L318.199 501.505C318.74 501.571 319.289 501.514 319.805 501.339L338.339 494.604C338.672 494.354 338.727 494.16 338.312 494.105Z" fill="#617387"/>
<path d="M360.585 497.819L344.572 495.047C344.038 495.005 343.501 495.071 342.993 495.241L324.459 501.976C323.988 502.142 323.933 502.336 324.459 502.42L340.5 505.191C341.043 505.233 341.589 505.167 342.107 504.997L360.585 498.179C360.946 498.068 361.001 497.874 360.585 497.819Z" fill="#617387"/>
<path d="M383.275 501.588L366.957 498.816C366.425 498.749 365.885 498.806 365.378 498.983L346.9 505.828C346.429 506.022 346.373 506.216 346.9 506.272L363.273 509.043C363.816 509.113 364.368 509.047 364.88 508.849L383.303 501.948C383.635 501.837 383.691 501.643 383.275 501.588Z" fill="#617387"/>
<path d="M406.38 505.413L389.758 502.641C389.216 502.575 388.667 502.632 388.151 502.807L369.755 509.764C369.284 509.93 369.257 510.152 369.755 510.208L386.378 512.979C386.921 513.049 387.473 512.982 387.985 512.785L406.325 505.773C406.768 505.69 406.796 505.496 406.38 505.413Z" fill="#617387"/>
<path d="M429.929 509.487L412.974 506.715C412.431 506.673 411.885 506.739 411.368 506.909L393.055 513.949C392.584 514.143 392.556 514.337 393.055 514.42L410.065 517.33C410.618 517.388 411.176 517.322 411.7 517.136L429.957 509.986C430.345 509.626 430.345 509.487 429.929 509.487Z" fill="#617387"/>
<path d="M453.921 513.339L436.661 510.568C436.109 510.524 435.553 510.59 435.027 510.762L416.797 517.801C416.326 517.968 416.299 518.19 416.797 518.273L434.112 521.21C434.674 521.282 435.244 521.215 435.775 521.016L453.949 513.755C454.392 513.616 454.392 513.395 453.921 513.339Z" fill="#617387"/>
<path d="M478.384 517.413L460.791 514.476C460.239 514.416 459.68 514.482 459.157 514.67L441.011 521.959C440.54 522.125 440.512 522.347 441.011 522.43L458.686 525.451C459.25 525.512 459.82 525.436 460.348 525.229L478.439 517.885C478.827 517.801 478.827 517.469 478.384 517.413Z" fill="#617387"/>
<path d="M503.317 521.543L485.365 518.578C484.812 518.506 484.251 518.573 483.73 518.772L465.667 526.116C465.224 526.31 465.196 526.504 465.667 526.587L483.675 529.664C484.246 529.737 484.825 529.671 485.365 529.47L503.345 521.987C503.788 521.848 503.788 521.626 503.317 521.543Z" fill="#617387"/>
<path d="M528.75 525.784L510.465 522.735C509.901 522.671 509.331 522.748 508.803 522.957L490.851 530.467C490.38 530.661 490.38 530.883 490.851 530.939L509.246 534.098C509.81 534.164 510.382 534.088 510.909 533.876L528.805 526.282C529.193 526.116 529.193 525.867 528.75 525.784Z" fill="#617387"/>
<path d="M554.708 530.107L536.036 527.003C535.474 526.928 534.903 526.995 534.373 527.197L516.532 534.846C516.061 535.04 516.089 535.262 516.532 535.345L535.288 538.533C535.858 538.606 536.438 538.539 536.978 538.339L554.736 530.606C555.207 530.412 555.179 530.19 554.708 530.107Z" fill="#617387"/>
<path d="M563.602 542.884L581.249 535.013C581.692 534.819 581.637 534.597 581.249 534.514L562.216 531.327C561.644 531.273 561.066 531.349 560.526 531.548L542.796 539.309C542.353 539.503 542.38 539.724 542.796 539.807L561.939 543.078C562.501 543.148 563.071 543.081 563.602 542.884Z" fill="#617387"/>
<path d="M608.178 539.004L588.785 535.761C588.221 535.694 587.649 535.77 587.123 535.983L569.503 543.882C569.06 544.076 569.087 544.297 569.503 544.38L589.034 547.734C589.616 547.799 590.205 547.723 590.752 547.512L608.233 539.502C608.704 539.308 608.676 539.087 608.178 539.004Z" fill="#617387"/>
<path d="M648.321 545.683L615.796 540.279C615.214 540.212 614.625 540.288 614.079 540.5L596.625 548.538C596.182 548.732 596.209 548.981 596.625 549.064L629.344 554.607C629.935 554.704 630.541 554.627 631.089 554.386L648.376 546.071C648.986 546.016 648.93 545.794 648.321 545.683Z" fill="#617387"/>
<path d="M625.493 556.603L605.324 553.139C604.742 553.058 604.149 553.134 603.606 553.36L585.626 561.675C585.183 561.897 585.211 562.146 585.626 562.229L605.878 565.804C606.478 565.886 607.089 565.809 607.651 565.583L625.493 557.102C626.158 556.908 625.991 556.603 625.493 556.603Z" fill="#617387"/>
<path d="M557.977 557.324L577.814 560.843C578.416 560.915 579.027 560.829 579.587 560.594L597.567 552.279C598.01 552.085 597.982 551.836 597.567 551.753L577.73 548.288C577.148 548.208 576.555 548.284 576.013 548.51L557.922 556.825C557.451 556.991 557.479 557.24 557.977 557.324Z" fill="#617387"/>
<path d="M570.029 547.041L550.636 543.715C550.063 543.65 549.482 543.726 548.946 543.937L530.716 552.002C530.245 552.196 530.273 552.446 530.716 552.529L550.109 555.965C550.7 556.03 551.299 555.954 551.855 555.744L569.973 547.568C570.555 547.374 570.527 547.124 570.029 547.041Z" fill="#617387"/>
<path d="M543.045 542.413L524.095 539.17C523.522 539.093 522.939 539.17 522.405 539.392L504.259 547.318C503.788 547.512 503.788 547.734 504.259 547.845L523.319 551.198C523.901 551.262 524.49 551.186 525.037 550.977L543.294 542.939C543.654 542.745 543.654 542.496 543.045 542.413Z" fill="#617387"/>
<path d="M478.106 543.217L496.779 546.515C497.359 546.588 497.948 546.522 498.496 546.321L516.864 538.394C517.307 538.2 517.307 537.978 516.864 537.895L498.275 534.708C497.711 534.629 497.136 534.706 496.612 534.93L478.106 542.745C477.635 542.912 477.635 543.133 478.106 543.217Z" fill="#617387"/>
<path d="M491.017 533.461L472.815 530.329C472.251 530.263 471.68 530.339 471.153 530.55L452.591 538.228C452.12 538.422 452.093 538.643 452.591 538.726L470.876 541.941C471.449 542.018 472.032 541.942 472.566 541.72L491.045 533.959C491.488 533.765 491.488 533.544 491.017 533.461Z" fill="#617387"/>
<path d="M465.723 529.109L447.881 526.061C447.32 525.987 446.748 526.054 446.219 526.255L427.546 533.793C427.075 533.987 427.048 534.209 427.546 534.292L445.443 537.452C446.023 537.523 446.612 537.457 447.161 537.258L465.723 529.608C466.166 529.414 466.166 529.192 465.723 529.109Z" fill="#617387"/>
<path d="M440.9 524.841L423.418 521.848C422.857 521.777 422.286 521.843 421.756 522.042L403.028 529.47C402.529 529.664 402.502 529.885 403.028 529.968L420.592 533.073C421.165 533.122 421.742 533.047 422.282 532.851L440.955 525.34C441.343 525.146 441.343 524.924 440.9 524.841Z" fill="#617387"/>
<path d="M416.576 520.573L399.427 517.802C398.874 517.758 398.319 517.824 397.792 517.996L378.953 525.312C378.482 525.506 378.427 525.728 378.953 525.784L396.213 528.888C396.775 528.959 397.345 528.892 397.875 528.694L416.631 521.294C416.991 520.961 417.019 520.739 416.576 520.573Z" fill="#617387"/>
<path d="M392.723 516.582L375.879 513.672C375.335 513.63 374.789 513.696 374.272 513.866L355.377 521.072C354.879 521.266 354.823 521.46 355.377 521.543L372.277 524.536C372.831 524.582 373.389 524.507 373.912 524.315L392.75 517.053C393.11 516.859 393.166 516.637 392.723 516.582Z" fill="#617387"/>
<path d="M369.312 512.563L352.69 509.792C352.147 509.75 351.601 509.816 351.083 509.986L332.106 517.081C331.635 517.247 331.579 517.469 332.106 517.524L348.728 520.462C349.281 520.532 349.842 520.466 350.363 520.268L369.285 513.09C369.7 512.841 369.756 512.619 369.312 512.563Z" fill="#617387"/>
<path d="M346.345 508.6L330.138 505.828C329.595 505.76 329.043 505.826 328.532 506.022L309.499 512.979C309.028 513.173 308.973 513.367 309.36 513.45L325.623 516.222C326.175 516.292 326.736 516.225 327.257 516.028L346.235 508.988C346.706 508.877 346.761 508.683 346.345 508.6Z" fill="#617387"/>
<path d="M287.059 509.487L303.017 512.258C303.597 512.414 304.209 512.414 304.79 512.258L323.822 505.33C324.293 505.136 324.377 504.942 323.961 504.886L308.031 502.115C307.497 502.046 306.954 502.113 306.452 502.309L287.364 509.182C286.754 509.237 286.671 509.487 287.059 509.487Z" fill="#617387"/>
<path d="M255.393 503.944L280.853 508.434C281.396 508.5 281.948 508.434 282.46 508.24L301.548 501.394C302.019 501.228 302.102 501.034 301.686 500.951L276.309 496.599C275.775 496.559 275.239 496.625 274.73 496.793L255.559 503.5C255.06 503.639 254.922 503.944 255.393 503.944Z" fill="#617387"/>
<path d="M553.462 559.208L533.903 555.744C533.312 555.651 532.707 555.728 532.158 555.966L513.402 564.28C512.931 564.502 512.931 564.751 513.402 564.835L533.072 568.437C533.675 568.507 534.285 568.422 534.845 568.188L553.518 559.735C554.127 559.541 553.961 559.375 553.462 559.208Z" fill="#617387"/>
<path d="M486.501 559.956L505.894 563.476C506.496 563.544 507.106 563.458 507.667 563.227L526.45 554.912C526.921 554.718 526.894 554.469 526.45 554.386L507.03 551.06C506.438 550.981 505.837 551.057 505.284 551.282L486.418 559.596C486.002 559.624 486.002 559.873 486.501 559.956Z" fill="#617387"/>
<path d="M460.126 555.134L478.993 558.571C479.584 558.662 480.189 558.585 480.738 558.349L499.66 550.173C500.131 549.979 500.103 549.73 499.66 549.646L480.877 546.321C480.295 546.245 479.703 546.322 479.159 546.542L460.182 554.607C459.655 554.801 459.655 555.051 460.126 555.134Z" fill="#617387"/>
<path d="M434.306 550.422L452.785 553.804C453.367 553.867 453.956 553.791 454.503 553.582L473.535 545.545C474.006 545.323 474.006 545.101 473.535 545.018L455.14 541.748C454.558 541.672 453.966 541.749 453.422 541.969L434.334 549.896C433.835 550.118 433.835 550.339 434.306 550.422Z" fill="#617387"/>
<path d="M408.985 545.794L427.103 549.12C427.685 549.18 428.274 549.105 428.821 548.898L447.937 540.972C448.408 540.778 448.436 540.556 447.937 540.473L429.929 537.202C429.359 537.131 428.779 537.198 428.239 537.396L409.04 545.212C408.569 545.517 408.514 545.711 408.985 545.794Z" fill="#617387"/>
<path d="M384.19 541.276L401.92 544.519C402.502 544.58 403.09 544.504 403.638 544.297L422.837 536.509C423.335 536.315 423.363 536.094 422.837 536.038L405.162 532.879C404.598 532.817 404.028 532.894 403.499 533.1L384.106 540.778C383.774 540.972 383.719 541.193 384.19 541.276Z" fill="#617387"/>
<path d="M359.865 536.842L377.263 540.029C377.836 540.075 378.412 540 378.953 539.807L398.346 532.158C398.817 531.964 398.845 531.742 398.346 531.659L381.031 528.583C380.46 528.527 379.884 528.593 379.341 528.777L359.948 536.343C359.477 536.537 359.422 536.759 359.865 536.842Z" fill="#617387"/>
<path d="M336.039 532.491L353.077 535.595C353.648 535.665 354.227 535.599 354.767 535.401L374.16 527.862C374.659 527.668 374.687 527.474 374.16 527.391L357.15 524.37C356.588 524.301 356.018 524.368 355.488 524.564L336.095 531.992C335.652 532.186 335.596 532.408 336.039 532.491Z" fill="#617387"/>
<path d="M312.657 528.222L329.28 531.271C329.851 531.341 330.43 531.275 330.97 531.077L350.363 523.649C350.834 523.483 350.889 523.261 350.363 523.178L333.74 520.24C333.188 520.171 332.627 520.237 332.106 520.434L312.713 527.751C312.297 527.945 312.242 528.139 312.657 528.222Z" fill="#617387"/>
<path d="M289.718 524.037L306.119 527.031C306.681 527.1 307.251 527.033 307.781 526.837L327.313 519.548C327.784 519.354 327.839 519.16 327.313 519.076L310.967 516.305C310.415 516.264 309.86 516.33 309.333 516.499L289.774 523.705C289.386 523.76 289.303 523.982 289.718 524.037Z" fill="#617387"/>
<path d="M267.25 519.936L283.319 522.874C283.88 522.942 284.45 522.876 284.981 522.68L304.54 515.501C305.039 515.307 305.094 515.113 304.706 515.03L288.638 512.259C288.097 512.195 287.548 512.252 287.031 512.425L267.417 519.52C266.918 519.659 266.835 519.853 267.25 519.936Z" fill="#617387"/>
<path d="M229.407 513.035L260.962 518.799C261.514 518.854 262.072 518.788 262.596 518.605L282.238 511.538C282.709 511.344 282.793 511.15 282.405 511.067L250.905 505.524C250.364 505.46 249.815 505.517 249.298 505.69L229.601 512.619C229.102 512.757 228.991 512.951 229.407 513.035Z" fill="#617387"/>
<path d="M601.806 567.689L561.247 560.483C560.656 560.404 560.054 560.481 559.501 560.705L540.884 569.213C540.386 569.435 540.413 569.685 540.884 569.768L581.831 577.334C582.443 577.405 583.062 577.319 583.632 577.085L602.055 568.354C602.36 568.133 602.332 567.883 601.806 567.689Z" fill="#617387"/>
<path d="M474.283 573.676L493.842 577.362C494.451 577.455 495.074 577.378 495.643 577.14L515.036 568.465C515.534 568.243 515.507 567.994 515.036 567.911L495.643 564.336C495.043 564.273 494.436 564.348 493.87 564.557L474.477 573.121C473.784 573.232 473.784 573.593 474.283 573.676Z" fill="#617387"/>
<path d="M447.466 568.631L466.637 572.234C467.246 572.326 467.869 572.249 468.438 572.013L487.83 563.504C488.301 563.282 488.301 563.033 487.83 562.95L468.798 559.375C468.207 559.311 467.609 559.387 467.052 559.596L447.521 567.911C447.022 568.271 446.995 568.521 447.466 568.631Z" fill="#617387"/>
<path d="M421.147 563.67L439.93 567.218C440.531 567.28 441.137 567.204 441.704 566.996L461.263 558.682C461.761 558.46 461.761 558.21 461.263 558.127L442.562 554.691C441.971 554.629 441.374 554.705 440.817 554.912L421.175 563.227C420.787 563.338 420.759 563.587 421.147 563.67Z" fill="#617387"/>
<path d="M395.548 558.82L413.916 562.285C414.483 562.374 415.062 562.326 415.606 562.146L435.276 553.831C435.747 553.637 435.775 553.388 435.276 553.305L416.964 549.951C416.382 549.877 415.79 549.954 415.246 550.173L395.521 558.294C395.105 558.488 395.077 558.737 395.548 558.82Z" fill="#617387"/>
<path d="M370.365 554.081L388.373 557.462C388.964 557.537 389.565 557.461 390.118 557.24L409.871 549.148C410.37 548.954 410.398 548.732 409.871 548.649L391.919 545.351C391.337 545.277 390.746 545.353 390.201 545.572L370.393 553.554C369.95 553.831 369.922 553.97 370.365 554.081Z" fill="#617387"/>
<path d="M345.709 549.425L363.356 552.75C363.938 552.811 364.527 552.735 365.074 552.529L384.938 544.575C385.437 544.381 385.464 544.159 384.938 544.076L367.346 540.833C366.773 540.773 366.194 540.849 365.656 541.055L345.737 548.898C345.321 549.092 345.266 549.342 345.709 549.425Z" fill="#617387"/>
<path d="M321.412 544.852L338.727 548.122C339.309 548.181 339.897 548.105 340.445 547.9L360.475 539.974C360.973 539.78 361.029 539.558 360.475 539.475L343.215 536.315C342.644 536.248 342.066 536.315 341.525 536.509L321.55 544.242C321.162 544.547 321.107 544.769 321.412 544.852Z" fill="#617387"/>
<path d="M297.836 540.389L314.79 543.577C315.37 543.645 315.958 543.579 316.508 543.383L336.483 535.678C336.982 535.484 337.037 535.262 336.621 535.179L319.722 532.075C319.149 532.017 318.57 532.093 318.032 532.297L298.002 539.974C297.475 539.974 297.42 540.306 297.836 540.389Z" fill="#617387"/>
<path d="M274.62 535.983L291.242 539.142C291.815 539.199 292.393 539.123 292.932 538.921L312.99 531.354C313.489 531.16 313.544 530.939 313.128 530.883L296.506 527.835C295.944 527.766 295.374 527.832 294.844 528.029L274.73 535.512C274.315 535.706 274.315 535.927 274.62 535.983Z" fill="#617387"/>
<path d="M251.847 531.659L268.137 534.736C268.708 534.803 269.286 534.736 269.827 534.542L289.94 527.086C290.439 526.892 290.522 526.698 290.107 526.615L273.844 523.622C273.283 523.581 272.719 523.647 272.182 523.816L252.152 531.216C251.515 531.41 251.432 531.659 251.847 531.659Z" fill="#617387"/>
<path d="M202.672 522.402L245.42 530.495C245.992 530.538 246.567 530.463 247.11 530.273L267.25 522.957C267.777 522.762 267.86 522.569 267.444 522.485L224.78 514.642C224.228 514.604 223.673 514.67 223.145 514.836L202.894 521.959C202.284 522.125 202.284 522.347 202.672 522.402Z" fill="#617387"/>
<path d="M501.71 578.775L528.833 583.903C529.453 583.972 530.082 583.887 530.661 583.653L549.832 574.784C550.303 574.562 550.276 574.313 549.832 574.23L522.849 569.269C522.239 569.191 521.62 569.268 521.048 569.491L501.655 578.193C501.212 578.498 501.212 578.775 501.71 578.775Z" fill="#617387"/>
<path d="M578.285 579.551L561.662 576.475L556.98 575.616C556.369 575.548 555.75 575.634 555.18 575.865L536.064 584.762C535.565 584.983 535.593 585.233 536.064 585.344L537.948 585.704L557.535 589.39C558.164 589.488 558.809 589.402 559.391 589.141L578.396 580.133C578.839 579.884 578.811 579.634 578.285 579.551Z" fill="#617387"/>
<path d="M489.3 579.413L469.713 575.699C469.103 575.607 468.481 575.684 467.912 575.92L447.854 584.734C447.356 584.983 447.328 585.233 447.854 585.344L467.552 589.168C468.17 589.26 468.802 589.183 469.38 588.947L489.355 579.995C489.826 579.773 489.826 579.496 489.3 579.413Z" fill="#617387"/>
<path d="M462.066 574.23L442.894 570.599C442.285 570.523 441.666 570.599 441.094 570.821L420.953 579.496C420.426 579.718 420.399 579.967 420.953 580.078L440.207 583.819C440.825 583.909 441.456 583.833 442.035 583.598L462.121 574.812C462.703 574.59 462.703 574.341 462.066 574.23Z" fill="#617387"/>
<path d="M435.414 569.186L416.631 565.61C416.03 565.534 415.421 565.61 414.858 565.832L394.606 574.341C394.08 574.562 394.052 574.812 394.606 574.923L413.472 578.609C414.084 578.673 414.702 578.587 415.273 578.359L435.442 569.74C435.885 569.518 435.885 569.269 435.414 569.186Z" fill="#617387"/>
<path d="M409.317 564.225L293.153 542.053C292.574 541.984 291.986 542.051 291.436 542.247L270.796 550.09C270.27 550.284 270.187 550.506 270.602 550.589L387.154 573.371C387.763 573.445 388.381 573.369 388.954 573.149L409.234 564.64C409.732 564.557 409.788 564.308 409.317 564.225Z" fill="#617387"/>
<path d="M286.532 540.916L269.91 537.757C269.33 537.689 268.743 537.756 268.192 537.951L247.497 545.655C246.971 545.849 246.888 546.071 247.303 546.154L263.926 549.425C264.508 549.481 265.095 549.405 265.644 549.203L286.311 541.415C286.893 541.221 286.948 540.999 286.532 540.916Z" fill="#617387"/>
<path d="M263.427 536.509L247.11 533.433C246.539 533.366 245.96 533.432 245.42 533.627L224.669 541.193C224.143 541.387 224.06 541.609 224.448 541.692L240.793 544.879C241.373 544.947 241.96 544.88 242.511 544.685L263.233 537.008C263.76 536.814 263.843 536.592 263.427 536.509Z" fill="#617387"/>
<path d="M240.682 532.214L224.697 529.165C224.135 529.113 223.569 529.179 223.034 529.359L202.284 536.814C201.758 537.008 201.647 537.23 202.062 537.313L218.075 540.445C218.657 540.502 219.245 540.426 219.793 540.223L240.543 532.685C241.07 532.491 241.07 532.269 240.682 532.214Z" fill="#617387"/>
<path d="M218.297 527.945L197.935 524.093C197.373 524.026 196.804 524.093 196.273 524.287L180.26 529.83C177.074 530.966 176.381 532.241 178.764 532.601L195.58 535.9C196.152 535.942 196.728 535.867 197.27 535.678L218.076 528.25C218.602 528.25 218.685 528.028 218.297 527.945Z" fill="#617387"/>
<path d="M524.345 586.064L497.195 580.909C496.576 580.818 495.945 580.895 495.366 581.131L475.447 590.139C474.921 590.36 474.921 590.637 475.447 590.721L502.736 596.042C503.363 596.135 504.004 596.059 504.592 595.82L524.4 586.646C524.871 586.425 524.843 586.148 524.345 586.064Z" fill="#617387"/>
<path d="M553.046 591.524L552.132 591.33H551.55L531.575 587.533C530.955 587.464 530.326 587.549 529.747 587.783L509.966 596.984C509.468 597.206 509.468 597.483 509.966 597.594L518.028 599.174L525.841 600.698L526.755 600.864C530.568 601.403 534.456 600.896 538.003 599.395L553.074 592.217C553.6 591.885 553.573 591.607 553.046 591.524Z" fill="#617387"/>
<path d="M557.423 608.292C551.578 607.156 551.301 604.107 556.703 601.53L666.661 548.649C672.521 546.272 678.898 545.461 685.167 546.293C690.708 547.208 691.678 549.785 687.079 552.03L577.786 605.576C571.38 608.347 564.331 609.287 557.423 608.292Z" fill="#BEC5CD"/>
<path d="M156.572 529.996C152.389 529.192 153.802 526.92 159.343 524.924L277.806 484.211C283.157 482.443 288.817 481.801 294.428 482.326C298.584 482.991 297.891 484.959 292.849 486.705L174.58 527.862C168.802 529.868 162.659 530.596 156.572 529.996Z" fill="#BEC5CD"/>
<path d="M273.595 634.594L144.993 604.994C140.311 603.913 141.834 601.031 148.345 598.536L234.948 565.694C241.039 563.426 247.577 562.619 254.036 563.338L381.087 588.947C386.268 589.972 385.825 592.827 380.034 595.321L294.844 631.795C288.13 634.578 280.801 635.543 273.595 634.594Z" fill="#E8F5FF"/>
<path d="M275.867 635.093L147.042 605.465C142.333 604.356 143.856 601.474 150.367 599.007L236.97 566.109C243.06 563.835 249.599 563.028 256.058 563.753L383.303 589.39C388.512 590.443 388.068 593.298 382.278 595.765L297.116 632.293C290.408 635.104 283.072 636.07 275.867 635.093Z" fill="#C0C9D4"/>
<path d="M721.103 524.786L312.855 461.041C310.777 460.736 309.78 457.77 310.639 454.417L387.878 149.548C388.737 146.25 391.119 143.617 393.28 143.645L812.776 150.407C815.741 150.407 817.375 153.65 816.433 157.558L728.113 518.439C727.143 522.402 723.985 525.257 721.103 524.786Z" fill="url(#paint1_linear_3_1509)"/>
<defs>
<linearGradient id="paint0_linear_3_1509" x1="426.494" y1="547.914" x2="415.099" y2="609.14" gradientUnits="userSpaceOnUse">
<stop stop-color="#D7E2ED"/>
<stop offset="0.27" stop-color="#CFDCE9"/>
<stop offset="0.69" stop-color="#BACCDE"/>
<stop offset="0.93" stop-color="#ABC0D6"/>
</linearGradient>
<linearGradient id="paint1_linear_3_1509" x1="415.606" y1="132.559" x2="817.483" y2="546.74" gradientUnits="userSpaceOnUse">
<stop/>
<stop offset="1" stop-color="#666666"/>
</linearGradient>
</defs>
</svg>
