<svg width="28" height="28" viewBox="0 0 28 28" fill="none" xmlns="http://www.w3.org/2000/svg">
<path d="M20.5332 27.3337H7.6888V22.8003L5.57324 21.3648V4.66699H23.9332V18.1914L20.5332 20.4959V27.3337Z" fill="white"/>
<path d="M20.5333 0.133789H6.9333C3.18378 0.133789 0.133301 3.18427 0.133301 6.93379V20.5338C0.133301 24.2833 3.18378 27.3338 6.9333 27.3338H7.99108H13.7333H16H20.5333C24.2828 27.3338 27.3333 24.2833 27.3333 20.5338V6.93379C27.3333 3.18427 24.2828 0.133789 20.5333 0.133789ZM9.19997 19.4005C9.19997 20.0264 8.69254 20.5338 8.06663 20.5338C7.44073 20.5338 6.9333 20.0264 6.9333 19.4005V11.3647C6.9333 10.7388 7.44073 10.2313 8.06663 10.2313C8.69254 10.2313 9.19997 10.7388 9.19997 11.3647V19.4005ZM9.19997 7.84046C9.19997 8.46636 8.69254 8.97379 8.06663 8.97379C7.44073 8.97379 6.9333 8.46636 6.9333 7.84046V7.61379C6.9333 6.98789 7.44073 6.48046 8.06663 6.48046C8.69254 6.48046 9.19997 6.98789 9.19997 7.61379V7.84046ZM20.5333 19.4005C20.5333 20.0264 20.0259 20.5338 19.4 20.5338C18.7741 20.5338 18.2666 20.0264 18.2666 19.4005V14.5442C18.2666 13.4665 17.8196 12.7605 17.0405 12.6074C16.0059 12.4042 14.5519 13.1936 13.7743 15.0956C13.7629 15.1231 13.7464 15.1465 13.7333 15.1725V19.4005C13.7333 20.0264 13.2259 20.5338 12.6 20.5338C11.9741 20.5338 11.4666 20.0264 11.4666 19.4005V11.4689C11.4666 10.843 11.9741 10.3356 12.6 10.3356C13.2074 10.3356 13.6993 10.8149 13.7279 11.4153C14.9461 10.4563 16.3447 10.1605 17.4775 10.3831C19.3339 10.748 20.5333 12.3812 20.5333 14.5442V19.4005Z" fill="#475883"/>
</svg>
