<svg width="268" height="64" viewBox="0 0 268 64" fill="none" xmlns="http://www.w3.org/2000/svg">
<path d="M70.7715 32H12.5781C9.71944 32 6.00318 31.3876 3.43039 28.6316C0.285865 25.2632 0 22.4561 0 19.6491V0H39.3021C48.3113 0 57.7396 4.37445 63.7481 11.5088C69.1787 17.9568 70.7715 25.2632 70.7715 32Z" fill="#165AAA"/>
<path d="M70.7715 32H12.5781C9.71944 32 6.00318 32.6124 3.43039 35.3684C0.285865 38.7368 0 41.5439 0 44.3509V64H39.3021C48.3113 64 57.7396 59.6255 63.7481 52.4912C69.1787 46.0432 70.7715 38.7368 70.7715 32Z" fill="#EAC131"/>
<path d="M30.6891 32.6119C31.9906 34.1954 32.2385 36.4543 32.1997 37.3858C32.5483 36.3767 33.2456 34.3119 33.2456 34.1256C30.4566 26.7668 24.6464 24.9271 22.0899 24.9271C26.7381 24.2751 30.7665 27.6828 32.1997 29.4681C31.8279 26.2079 28.946 24.0733 27.5515 23.4135C22.6737 21.1779 18.7017 23.4911 17.3255 24.9271C18.0614 25.0048 20.1841 26.0682 22.7871 29.701C25.3901 33.3338 29.1397 33.1553 30.6891 32.6119Z" fill="white"/>
<path d="M36.7317 55.7826C36.3831 49.2234 36.0577 34.894 37.5452 30.0503C39.7918 29.4681 44.1224 25.7189 43.4716 15.3794C38.6685 17.1647 30.2475 22.482 34.9886 29.4681C36.0732 27.0618 38.7304 21.7601 40.6827 19.8039C37.8938 24.4226 32.4554 37.4556 33.0132 52.6389C33.7719 52.8112 35.2249 53.4235 36.1315 54.6362H36.1219C23.7393 54.6362 13.7012 44.5814 13.7012 32.1781C13.7012 19.7748 23.7393 9.71996 36.1219 9.71996C48.5046 9.71996 58.5427 19.7748 58.5427 32.1781H59.6892C59.6892 19.1405 49.1378 8.57153 36.1219 8.57153C23.1061 8.57153 12.5547 19.1405 12.5547 32.1781C12.5547 45.2156 23.1061 55.7847 36.1219 55.7847L36.7317 55.7826Z" fill="white"/>
<path fill-rule="evenodd" clip-rule="evenodd" d="M58.547 32.1781C58.547 38.0388 56.2603 43.6674 52.1748 47.8628C48.0893 52.0582 42.5286 54.488 36.6795 54.6337L36.7079 55.7774C36.7111 55.7773 36.7144 55.7772 36.7176 55.7771C37.0643 55.7683 37.4099 55.7519 37.7544 55.728C43.5152 55.3275 48.9432 52.8197 52.9924 48.6616C57.0416 44.5036 59.4095 39.0058 59.6659 33.2273C59.6814 32.8785 59.6892 32.5287 59.6892 32.1781H58.547Z" fill="white"/>
<path d="M96.8035 40.74C95.5235 40.74 94.3315 40.532 93.2275 40.116C92.1395 39.684 91.1875 39.084 90.3715 38.316C89.5715 37.532 88.9475 36.612 88.4995 35.556C88.0515 34.5 87.8275 33.348 87.8275 32.1C87.8275 30.852 88.0515 29.7 88.4995 28.644C88.9475 27.588 89.5795 26.676 90.3955 25.908C91.2115 25.124 92.1635 24.524 93.2515 24.108C94.3395 23.676 95.5315 23.46 96.8275 23.46C98.2035 23.46 99.4595 23.7 100.595 24.18C101.731 24.644 102.691 25.34 103.475 26.268L101.459 28.164C100.851 27.508 100.171 27.02 99.4195 26.7C98.6675 26.364 97.8515 26.196 96.9715 26.196C96.0915 26.196 95.2835 26.34 94.5475 26.628C93.8275 26.916 93.1955 27.324 92.6515 27.852C92.1235 28.38 91.7075 29.004 91.4035 29.724C91.1155 30.444 90.9715 31.236 90.9715 32.1C90.9715 32.964 91.1155 33.756 91.4035 34.476C91.7075 35.196 92.1235 35.82 92.6515 36.348C93.1955 36.876 93.8275 37.284 94.5475 37.572C95.2835 37.86 96.0915 38.004 96.9715 38.004C97.8515 38.004 98.6675 37.844 99.4195 37.524C100.171 37.188 100.851 36.684 101.459 36.012L103.475 37.932C102.691 38.844 101.731 39.54 100.595 40.02C99.4595 40.5 98.1955 40.74 96.8035 40.74ZM110.041 31.428H118.417V34.068H110.041V31.428ZM110.305 40.5H107.185V23.7H119.449V26.316H110.305V40.5ZM130.539 40.5V23.7H133.659V40.5H130.539ZM142.331 40.5V26.34H136.763V23.7H151.019V26.34H145.451V40.5H142.331ZM152.301 35.076V32.58H158.901V35.076H152.301ZM168.048 40.74C166.736 40.74 165.48 40.556 164.28 40.188C163.08 39.804 162.128 39.316 161.424 38.724L162.504 36.3C163.176 36.828 164.008 37.268 165 37.62C165.992 37.972 167.008 38.148 168.048 38.148C168.928 38.148 169.64 38.052 170.184 37.86C170.728 37.668 171.128 37.412 171.384 37.092C171.64 36.756 171.768 36.38 171.768 35.964C171.768 35.452 171.584 35.044 171.216 34.74C170.848 34.42 170.368 34.172 169.776 33.996C169.2 33.804 168.552 33.628 167.832 33.468C167.128 33.308 166.416 33.124 165.696 32.916C164.992 32.692 164.344 32.412 163.752 32.076C163.176 31.724 162.704 31.26 162.336 30.684C161.968 30.108 161.784 29.372 161.784 28.476C161.784 27.564 162.024 26.732 162.504 25.98C163 25.212 163.744 24.604 164.736 24.156C165.744 23.692 167.016 23.46 168.552 23.46C169.56 23.46 170.56 23.588 171.552 23.844C172.544 24.1 173.408 24.468 174.144 24.948L173.16 27.372C172.408 26.924 171.632 26.596 170.832 26.388C170.032 26.164 169.264 26.052 168.528 26.052C167.664 26.052 166.96 26.156 166.416 26.364C165.888 26.572 165.496 26.844 165.24 27.18C165 27.516 164.88 27.9 164.88 28.332C164.88 28.844 165.056 29.26 165.408 29.58C165.776 29.884 166.248 30.124 166.824 30.3C167.416 30.476 168.072 30.652 168.792 30.828C169.512 30.988 170.224 31.172 170.928 31.38C171.648 31.588 172.296 31.86 172.872 32.196C173.464 32.532 173.936 32.988 174.288 33.564C174.656 34.14 174.84 34.868 174.84 35.748C174.84 36.644 174.592 37.476 174.096 38.244C173.616 38.996 172.872 39.604 171.864 40.068C170.856 40.516 169.584 40.74 168.048 40.74ZM178.653 40.5V23.7H185.565C187.053 23.7 188.325 23.94 189.381 24.42C190.453 24.9 191.277 25.588 191.853 26.484C192.429 27.38 192.717 28.444 192.717 29.676C192.717 30.908 192.429 31.972 191.853 32.868C191.277 33.764 190.453 34.452 189.381 34.932C188.325 35.412 187.053 35.652 185.565 35.652H180.381L181.773 34.188V40.5H178.653ZM181.773 34.524L180.381 33.012H185.421C186.797 33.012 187.829 32.724 188.517 32.148C189.221 31.556 189.573 30.732 189.573 29.676C189.573 28.604 189.221 27.78 188.517 27.204C187.829 26.628 186.797 26.34 185.421 26.34H180.381L181.773 24.804V34.524ZM196.553 40.5V23.7H203.465C204.953 23.7 206.225 23.94 207.281 24.42C208.353 24.9 209.177 25.588 209.753 26.484C210.329 27.38 210.617 28.444 210.617 29.676C210.617 30.908 210.329 31.972 209.753 32.868C209.177 33.748 208.353 34.428 207.281 34.908C206.225 35.372 204.953 35.604 203.465 35.604H198.281L199.673 34.188V40.5H196.553ZM207.545 40.5L203.297 34.404H206.633L210.905 40.5H207.545ZM199.673 34.524L198.281 33.036H203.321C204.697 33.036 205.729 32.74 206.417 32.148C207.121 31.556 207.473 30.732 207.473 29.676C207.473 28.604 207.121 27.78 206.417 27.204C205.729 26.628 204.697 26.34 203.321 26.34H198.281L199.673 24.804V34.524ZM222.7 40.74C221.388 40.74 220.18 40.524 219.076 40.092C217.972 39.66 217.012 39.06 216.196 38.292C215.38 37.508 214.748 36.596 214.3 35.556C213.852 34.5 213.628 33.348 213.628 32.1C213.628 30.852 213.852 29.708 214.3 28.668C214.748 27.612 215.38 26.7 216.196 25.932C217.012 25.148 217.972 24.54 219.076 24.108C220.18 23.676 221.38 23.46 222.676 23.46C223.988 23.46 225.188 23.676 226.276 24.108C227.38 24.54 228.34 25.148 229.156 25.932C229.972 26.7 230.604 27.612 231.052 28.668C231.5 29.708 231.724 30.852 231.724 32.1C231.724 33.348 231.5 34.5 231.052 35.556C230.604 36.612 229.972 37.524 229.156 38.292C228.34 39.06 227.38 39.66 226.276 40.092C225.188 40.524 223.996 40.74 222.7 40.74ZM222.676 38.004C223.524 38.004 224.308 37.86 225.028 37.572C225.748 37.284 226.372 36.876 226.9 36.348C227.428 35.804 227.836 35.18 228.124 34.476C228.428 33.756 228.58 32.964 228.58 32.1C228.58 31.236 228.428 30.452 228.124 29.748C227.836 29.028 227.428 28.404 226.9 27.876C226.372 27.332 225.748 26.916 225.028 26.628C224.308 26.34 223.524 26.196 222.676 26.196C221.828 26.196 221.044 26.34 220.324 26.628C219.62 26.916 218.996 27.332 218.452 27.876C217.924 28.404 217.508 29.028 217.204 29.748C216.916 30.452 216.772 31.236 216.772 32.1C216.772 32.948 216.916 33.732 217.204 34.452C217.508 35.172 217.924 35.804 218.452 36.348C218.98 36.876 219.604 37.284 220.324 37.572C221.044 37.86 221.828 38.004 222.676 38.004ZM242.975 40.74C240.671 40.74 238.863 40.092 237.551 38.796C236.255 37.5 235.607 35.628 235.607 33.18V23.7H238.727V33.06C238.727 34.788 239.095 36.044 239.831 36.828C240.583 37.612 241.639 38.004 242.999 38.004C244.359 38.004 245.407 37.612 246.143 36.828C246.879 36.044 247.247 34.788 247.247 33.06V23.7H250.319V33.18C250.319 35.628 249.663 37.5 248.351 38.796C247.055 40.092 245.263 40.74 242.975 40.74ZM258.512 40.5V26.34H252.944V23.7H267.2V26.34H261.632V40.5H258.512Z" fill="#165AAA"/>
</svg>
