<svg width="56" height="50" viewBox="0 0 56 50" fill="none" xmlns="http://www.w3.org/2000/svg">
<path d="M56 25H9.95279C7.69079 25 4.75019 24.5216 2.7144 22.3684C0.226199 19.7369 0 17.5438 0 15.3509V0H31.0989C38.2277 0 45.6881 3.41754 50.4425 8.99125C54.7397 14.0287 56 19.7369 56 25Z" fill="#165AAA"/>
<path d="M56 25H9.95279C7.69079 25 4.75019 25.4784 2.7144 27.6316C0.226199 30.2631 0 32.4562 0 34.6491V50H31.0989C38.2277 50 45.6881 46.5824 50.4425 41.0087C54.7397 35.9712 56 30.2631 56 25Z" fill="#EAC131"/>
<path d="M24.2833 25.478C25.3132 26.7152 25.5093 28.4799 25.4786 29.2077C25.7545 28.4193 26.3062 26.8062 26.3062 26.6606C24.0993 20.9116 19.5019 19.4743 17.479 19.4743C21.157 18.9649 24.3446 21.6272 25.4786 23.022C25.1844 20.4749 22.904 18.8073 21.8006 18.2918C17.9409 16.5452 14.7979 18.3524 13.709 19.4743C14.2913 19.535 15.9709 20.3658 18.0306 23.2039C20.0903 26.042 23.0573 25.9026 24.2833 25.478Z" fill="white"/>
<path d="M29.0651 43.5797C28.7892 38.4553 28.5318 27.2605 29.7088 23.4763C31.4865 23.0215 34.9132 20.0924 34.3982 12.0147C30.5976 13.4095 23.9343 17.5636 27.6858 23.0215C28.544 21.1416 30.6466 16.9996 32.1914 15.4713C29.9846 19.0797 25.6813 29.2617 26.1227 41.1237C26.723 41.2583 27.8728 41.7366 28.5902 42.6841H28.5826C18.7845 42.6841 10.8415 34.8288 10.8415 25.1387C10.8415 15.4486 18.7845 7.59326 28.5826 7.59326C38.3807 7.59326 46.3237 15.4486 46.3237 25.1387H47.2309C47.2309 14.9531 38.8818 6.69604 28.5826 6.69604C18.2834 6.69604 9.93433 14.9531 9.93433 25.1387C9.93433 35.3242 18.2834 43.5813 28.5826 43.5813L29.0651 43.5797Z" fill="white"/>
<path fill-rule="evenodd" clip-rule="evenodd" d="M46.327 25.1396C46.327 29.7183 44.5176 34.1157 41.2848 37.3933C38.052 40.671 33.652 42.5693 29.0237 42.6831L29.0462 43.5766C29.0487 43.5765 29.0513 43.5764 29.0538 43.5764C29.3282 43.5695 29.6016 43.5567 29.8742 43.538C34.4326 43.2251 38.7277 41.2659 41.9317 38.0174C45.1358 34.7689 47.0095 30.4738 47.2123 25.9593C47.2246 25.6868 47.2308 25.4136 47.2308 25.1396H46.327Z" fill="white"/>
</svg>
