<svg width="24" height="24" viewBox="0 0 24 24" fill="none" xmlns="http://www.w3.org/2000/svg">
<path d="M22.7335 22.3337H17.5335L1.26685 1.66699H6.46685L22.7335 22.3337Z" fill="white"/>
<path d="M11.2785 14.3483L3.82033 22.9914C3.62273 23.2179 3.34539 23.3339 3.06646 23.3339C2.83313 23.3339 2.59886 23.2527 2.40939 23.0874C1.99326 22.7242 1.95033 22.0926 2.31353 21.6764L10.009 12.7615L11.2785 14.3483ZM13.9915 11.2395L21.687 2.32456C22.0502 1.90842 22.0073 1.27682 21.5911 0.913624C21.1751 0.550424 20.5431 0.593357 20.1802 1.00949L12.7221 9.65256L13.9915 11.2395Z" fill="#475883"/>
<path d="M22.7334 23.3337H17.5334C17.2296 23.3337 16.9424 23.1955 16.7526 22.9583L0.485969 2.29166C0.245835 1.99153 0.199036 1.58019 0.365569 1.23379C0.532102 0.887392 0.882369 0.666992 1.26677 0.666992H6.46677C6.77064 0.666992 7.05784 0.805126 7.24757 1.04233L23.5142 21.709C23.7544 22.0091 23.8012 22.4205 23.6346 22.7669C23.4681 23.1133 23.1178 23.3337 22.7334 23.3337ZM18.0141 21.3337H20.6528L5.9861 2.66699H3.34744L18.0141 21.3337Z" fill="#475883"/>
</svg>
